<svg xmlns="http://www.w3.org/2000/svg" width="106.59" height="95.936" viewBox="0 0 106.59 95.936"><path d="M95.213,79.479l8.954-43.116-16.895-4.21V3H23.318V32.152L6.424,36.363l9.54,47.646A18.813,18.813,0,0,0,2,77.613V88.272c2.985,0,4.264,1.172,6.875,3.784a19.133,19.133,0,0,0,14.443,6.875,18.973,18.973,0,0,0,14.39-6.875c2.611-2.611,3.891-3.784,6.875-3.784s4.264,1.172,6.875,3.784a18.6,18.6,0,0,0,28.886,0c2.611-2.611,3.891-3.784,6.928-3.784s4.264,1.172,6.875,3.784a19.133,19.133,0,0,0,14.443,6.875V88.272c-2.985,0-4.264-1.173-6.928-3.784a23.983,23.983,0,0,0-6.449-5.01ZM60.625,86.034l-1.6-1.546a21.958,21.958,0,0,0-9.06-6.076V36.469l5.33-1.492,5.33,1.332ZM76.613,29.648,55.3,24.318l-21.318,5.33V13.659H76.613Z" transform="translate(-2 -3)" fill="#28c7fa"/></svg>