<svg xmlns="http://www.w3.org/2000/svg" width="94.352" height="120.561" viewBox="0 0 94.352 120.561"><path d="M6,121.561V50.8A10.484,10.484,0,0,1,16.484,40.313h0V29.83a5.244,5.244,0,0,1,5.242-5.242h5.242V3.621a2.621,2.621,0,1,1,5.242,0V24.588h5.242a5.244,5.244,0,0,1,5.242,5.242V40.313h0A10.484,10.484,0,0,1,53.176,50.8V71.764H71.522V56.039H82.006V48.176H97.731v7.863h2.621v65.522Zm31.451-89.11A2.62,2.62,0,0,0,34.83,29.83H24.346a2.62,2.62,0,0,0-2.621,2.621v7.863H37.451ZM47.934,50.8a5.244,5.244,0,0,0-5.242-5.242H16.484A5.244,5.244,0,0,0,11.242,50.8v65.522H47.934ZM71.522,77.006H53.176v39.313H71.522ZM95.11,61.28H76.764v55.039H95.11ZM84.627,69.143h2.621a2.618,2.618,0,0,1,2.621,2.621v2.621a2.618,2.618,0,0,1-2.621,2.621H84.627a2.618,2.618,0,0,1-2.621-2.621V71.764A2.618,2.618,0,0,1,84.627,69.143Zm0,15.725h2.621a2.618,2.618,0,0,1,2.621,2.621V90.11a2.618,2.618,0,0,1-2.621,2.621H84.627a2.618,2.618,0,0,1-2.621-2.621V87.489A2.618,2.618,0,0,1,84.627,84.868Zm0,15.725h2.621a2.618,2.618,0,0,1,2.621,2.621v2.621a2.618,2.618,0,0,1-2.621,2.621H84.627a2.618,2.618,0,0,1-2.621-2.621v-2.621A2.618,2.618,0,0,1,84.627,100.594ZM61.039,84.868H63.66a2.618,2.618,0,0,1,2.621,2.621V90.11a2.618,2.618,0,0,1-2.621,2.621H61.039a2.618,2.618,0,0,1-2.621-2.621V87.489A2.618,2.618,0,0,1,61.039,84.868Zm0,15.725H63.66a2.618,2.618,0,0,1,2.621,2.621v2.621a2.618,2.618,0,0,1-2.621,2.621H61.039a2.618,2.618,0,0,1-2.621-2.621v-2.621A2.618,2.618,0,0,1,61.039,100.594Zm-23.588,7.863H34.83a2.618,2.618,0,0,1-2.621-2.621v-2.621a2.62,2.62,0,0,1,2.621-2.621h2.621a2.62,2.62,0,0,1,2.621,2.621v2.621A2.618,2.618,0,0,1,37.451,108.456Zm0-15.725H34.83a2.618,2.618,0,0,1-2.621-2.621V87.489a2.62,2.62,0,0,1,2.621-2.621h2.621a2.62,2.62,0,0,1,2.621,2.621V90.11A2.618,2.618,0,0,1,37.451,92.731Zm0-15.725H34.83a2.619,2.619,0,0,1-2.621-2.621V71.764a2.62,2.62,0,0,1,2.621-2.621h2.621a2.62,2.62,0,0,1,2.621,2.621v2.621A2.618,2.618,0,0,1,37.451,77.006Zm0-15.725H34.83a2.618,2.618,0,0,1-2.621-2.621V56.039a2.62,2.62,0,0,1,2.621-2.621h2.621a2.62,2.62,0,0,1,2.621,2.621V58.66A2.618,2.618,0,0,1,37.451,61.28Zm-13.1,47.176H21.725a2.618,2.618,0,0,1-2.621-2.621v-2.621a2.618,2.618,0,0,1,2.621-2.621h2.621a2.618,2.618,0,0,1,2.621,2.621v2.621A2.618,2.618,0,0,1,24.346,108.456Zm0-15.725H21.725A2.618,2.618,0,0,1,19.1,90.11V87.489a2.618,2.618,0,0,1,2.621-2.621h2.621a2.618,2.618,0,0,1,2.621,2.621V90.11A2.618,2.618,0,0,1,24.346,92.731Zm0-15.725H21.725A2.618,2.618,0,0,1,19.1,74.385V71.764a2.62,2.62,0,0,1,2.621-2.621h2.621a2.62,2.62,0,0,1,2.621,2.621v2.621A2.618,2.618,0,0,1,24.346,77.006Zm0-15.725H21.725A2.618,2.618,0,0,1,19.1,58.66V56.039a2.62,2.62,0,0,1,2.621-2.621h2.621a2.62,2.62,0,0,1,2.621,2.621V58.66A2.618,2.618,0,0,1,24.346,61.28Z" transform="translate(-6 -1)" fill="#28c7fa" fill-rule="evenodd"/></svg>