<svg xmlns="http://www.w3.org/2000/svg" viewBox="0 0 65.176 82.951"><path d="M190.214,0A2.847,2.847,0,0,1,192.3.88a2.847,2.847,0,0,1,.88,2.083V79.989a3,3,0,0,1-2.963,2.963H130.963A3,3,0,0,1,128,79.989V2.963A2.847,2.847,0,0,1,128.88.88,2.847,2.847,0,0,1,130.963,0ZM151.7,13.331v2.963a1.426,1.426,0,0,0,1.481,1.481h2.963a1.426,1.426,0,0,0,1.481-1.481V13.331a1.426,1.426,0,0,0-1.481-1.481h-2.963a1.426,1.426,0,0,0-1.481,1.481Zm0,11.85v2.963a1.426,1.426,0,0,0,1.481,1.481h2.963a1.426,1.426,0,0,0,1.481-1.481V25.182a1.426,1.426,0,0,0-1.481-1.481h-2.963a1.426,1.426,0,0,0-1.481,1.481Zm0,11.85v2.963a1.426,1.426,0,0,0,1.481,1.481h2.963a1.426,1.426,0,0,0,1.481-1.481V37.032a1.426,1.426,0,0,0-1.481-1.481h-2.963a1.426,1.426,0,0,0-1.481,1.481Zm0,11.85v2.963a1.426,1.426,0,0,0,1.481,1.481h2.963a1.426,1.426,0,0,0,1.481-1.481V48.882a1.426,1.426,0,0,0-1.481-1.481h-2.963a1.426,1.426,0,0,0-1.481,1.481Zm-5.925,14.813V60.732a1.426,1.426,0,0,0-1.481-1.481h-2.963a1.426,1.426,0,0,0-1.481,1.481v2.963a1.426,1.426,0,0,0,1.481,1.481h2.963a1.426,1.426,0,0,0,1.481-1.481Zm0-11.85V48.882a1.426,1.426,0,0,0-1.481-1.481h-2.963a1.426,1.426,0,0,0-1.481,1.481v2.963a1.426,1.426,0,0,0,1.481,1.481h2.963a1.426,1.426,0,0,0,1.481-1.481Zm0-11.85V37.032a1.426,1.426,0,0,0-1.481-1.481h-2.963a1.426,1.426,0,0,0-1.481,1.481v2.963a1.426,1.426,0,0,0,1.481,1.481h2.963a1.426,1.426,0,0,0,1.481-1.481Zm0-11.85V25.182a1.426,1.426,0,0,0-1.481-1.481h-2.963a1.426,1.426,0,0,0-1.481,1.481v2.963a1.426,1.426,0,0,0,1.481,1.481h2.963a1.426,1.426,0,0,0,1.481-1.481Zm0-11.85V13.331a1.426,1.426,0,0,0-1.481-1.481h-2.963a1.426,1.426,0,0,0-1.481,1.481v2.963a1.426,1.426,0,0,0,1.481,1.481h2.963a1.426,1.426,0,0,0,1.481-1.481Zm23.7,59.251V66.657a1.426,1.426,0,0,0-1.481-1.481H153.182a1.426,1.426,0,0,0-1.481,1.481v8.888a1.426,1.426,0,0,0,1.481,1.481h14.813a1.426,1.426,0,0,0,1.481-1.481Zm0-23.7V48.882a1.426,1.426,0,0,0-1.481-1.481h-2.963a1.426,1.426,0,0,0-1.481,1.481v2.963a1.426,1.426,0,0,0,1.481,1.481h2.963a1.426,1.426,0,0,0,1.481-1.481Zm0-11.85V37.032a1.426,1.426,0,0,0-1.481-1.481h-2.963a1.426,1.426,0,0,0-1.481,1.481v2.963a1.426,1.426,0,0,0,1.481,1.481h2.963a1.426,1.426,0,0,0,1.481-1.481Zm0-11.85V25.182a1.426,1.426,0,0,0-1.481-1.481h-2.963a1.426,1.426,0,0,0-1.481,1.481v2.963a1.426,1.426,0,0,0,1.481,1.481h2.963a1.426,1.426,0,0,0,1.481-1.481Zm0-11.85V13.331a1.426,1.426,0,0,0-1.481-1.481h-2.963a1.426,1.426,0,0,0-1.481,1.481v2.963a1.426,1.426,0,0,0,1.481,1.481h2.963a1.426,1.426,0,0,0,1.481-1.481Zm11.85,47.4V60.732a1.426,1.426,0,0,0-1.481-1.481h-2.963a1.426,1.426,0,0,0-1.481,1.481v2.963a1.426,1.426,0,0,0,1.481,1.481h2.963a1.426,1.426,0,0,0,1.481-1.481Zm0-11.85V48.882a1.426,1.426,0,0,0-1.481-1.481h-2.963a1.426,1.426,0,0,0-1.481,1.481v2.963a1.426,1.426,0,0,0,1.481,1.481h2.963a1.426,1.426,0,0,0,1.481-1.481Zm0-11.85V37.032a1.426,1.426,0,0,0-1.481-1.481h-2.963a1.426,1.426,0,0,0-1.481,1.481v2.963a1.426,1.426,0,0,0,1.481,1.481h2.963a1.426,1.426,0,0,0,1.481-1.481Zm0-11.85V25.182a1.426,1.426,0,0,0-1.481-1.481h-2.963a1.426,1.426,0,0,0-1.481,1.481v2.963a1.426,1.426,0,0,0,1.481,1.481h2.963a1.426,1.426,0,0,0,1.481-1.481Zm0-11.85V13.331a1.426,1.426,0,0,0-1.481-1.481h-2.963a1.426,1.426,0,0,0-1.481,1.481v2.963a1.426,1.426,0,0,0,1.481,1.481h2.963a1.426,1.426,0,0,0,1.481-1.481Z" transform="translate(-128)" fill="#28c7fa"/></svg>