<svg xmlns="http://www.w3.org/2000/svg" width="83.603" height="106.404" viewBox="0 0 83.603 106.404"><path d="M207.8,0a3.652,3.652,0,0,1,2.672,1.128A3.652,3.652,0,0,1,211.6,3.8v98.8a3.853,3.853,0,0,1-3.8,3.8h-76a3.853,3.853,0,0,1-3.8-3.8V3.8a3.652,3.652,0,0,1,1.128-2.672A3.652,3.652,0,0,1,131.8,0ZM158.4,17.1v3.8a1.829,1.829,0,0,0,1.9,1.9h3.8a1.829,1.829,0,0,0,1.9-1.9V17.1a1.829,1.829,0,0,0-1.9-1.9h-3.8a1.829,1.829,0,0,0-1.9,1.9Zm0,15.2v3.8a1.829,1.829,0,0,0,1.9,1.9h3.8a1.829,1.829,0,0,0,1.9-1.9V32.3a1.829,1.829,0,0,0-1.9-1.9h-3.8a1.829,1.829,0,0,0-1.9,1.9Zm0,15.2v3.8a1.829,1.829,0,0,0,1.9,1.9h3.8a1.829,1.829,0,0,0,1.9-1.9V47.5a1.829,1.829,0,0,0-1.9-1.9h-3.8a1.829,1.829,0,0,0-1.9,1.9Zm0,15.2v3.8a1.829,1.829,0,0,0,1.9,1.9h3.8a1.829,1.829,0,0,0,1.9-1.9V62.7a1.829,1.829,0,0,0-1.9-1.9h-3.8a1.829,1.829,0,0,0-1.9,1.9Zm-7.6,19V77.9a1.829,1.829,0,0,0-1.9-1.9h-3.8a1.829,1.829,0,0,0-1.9,1.9v3.8a1.829,1.829,0,0,0,1.9,1.9h3.8a1.829,1.829,0,0,0,1.9-1.9Zm0-15.2V62.7a1.829,1.829,0,0,0-1.9-1.9h-3.8a1.829,1.829,0,0,0-1.9,1.9v3.8a1.829,1.829,0,0,0,1.9,1.9h3.8a1.829,1.829,0,0,0,1.9-1.9Zm0-15.2V47.5a1.829,1.829,0,0,0-1.9-1.9h-3.8a1.829,1.829,0,0,0-1.9,1.9v3.8a1.829,1.829,0,0,0,1.9,1.9h3.8a1.829,1.829,0,0,0,1.9-1.9Zm0-15.2V32.3a1.829,1.829,0,0,0-1.9-1.9h-3.8a1.829,1.829,0,0,0-1.9,1.9v3.8a1.829,1.829,0,0,0,1.9,1.9h3.8a1.829,1.829,0,0,0,1.9-1.9Zm0-15.2V17.1a1.829,1.829,0,0,0-1.9-1.9h-3.8a1.829,1.829,0,0,0-1.9,1.9v3.8a1.829,1.829,0,0,0,1.9,1.9h3.8a1.829,1.829,0,0,0,1.9-1.9Zm30.4,76V85.5a1.829,1.829,0,0,0-1.9-1.9h-19a1.829,1.829,0,0,0-1.9,1.9V96.9a1.829,1.829,0,0,0,1.9,1.9h19a1.829,1.829,0,0,0,1.9-1.9Zm0-30.4V62.7a1.829,1.829,0,0,0-1.9-1.9h-3.8a1.829,1.829,0,0,0-1.9,1.9v3.8a1.829,1.829,0,0,0,1.9,1.9h3.8a1.829,1.829,0,0,0,1.9-1.9Zm0-15.2V47.5a1.829,1.829,0,0,0-1.9-1.9h-3.8a1.829,1.829,0,0,0-1.9,1.9v3.8a1.829,1.829,0,0,0,1.9,1.9h3.8a1.829,1.829,0,0,0,1.9-1.9Zm0-15.2V32.3a1.829,1.829,0,0,0-1.9-1.9h-3.8a1.829,1.829,0,0,0-1.9,1.9v3.8a1.829,1.829,0,0,0,1.9,1.9h3.8a1.829,1.829,0,0,0,1.9-1.9Zm0-15.2V17.1a1.829,1.829,0,0,0-1.9-1.9h-3.8a1.829,1.829,0,0,0-1.9,1.9v3.8a1.829,1.829,0,0,0,1.9,1.9h3.8a1.829,1.829,0,0,0,1.9-1.9Zm15.2,60.8V77.9a1.829,1.829,0,0,0-1.9-1.9h-3.8a1.829,1.829,0,0,0-1.9,1.9v3.8a1.829,1.829,0,0,0,1.9,1.9h3.8a1.829,1.829,0,0,0,1.9-1.9Zm0-15.2V62.7a1.829,1.829,0,0,0-1.9-1.9h-3.8a1.829,1.829,0,0,0-1.9,1.9v3.8a1.829,1.829,0,0,0,1.9,1.9h3.8a1.829,1.829,0,0,0,1.9-1.9Zm0-15.2V47.5a1.829,1.829,0,0,0-1.9-1.9h-3.8a1.829,1.829,0,0,0-1.9,1.9v3.8a1.829,1.829,0,0,0,1.9,1.9h3.8a1.829,1.829,0,0,0,1.9-1.9Zm0-15.2V32.3a1.829,1.829,0,0,0-1.9-1.9h-3.8a1.829,1.829,0,0,0-1.9,1.9v3.8a1.829,1.829,0,0,0,1.9,1.9h3.8a1.829,1.829,0,0,0,1.9-1.9Zm0-15.2V17.1a1.829,1.829,0,0,0-1.9-1.9h-3.8a1.829,1.829,0,0,0-1.9,1.9v3.8a1.829,1.829,0,0,0,1.9,1.9h3.8a1.829,1.829,0,0,0,1.9-1.9Z" transform="translate(-128)" fill="#28c7fa"/></svg>