<svg xmlns="http://www.w3.org/2000/svg" viewBox="0 0 161.735 93" stroke-width="4" stroke="#28c7fa" stroke-linejoin="round" fill="none" xmlns:v="https://vecta.io/nano"><ellipse cx="40.235" cy="76" rx="15.5" ry="15"/><ellipse cx="119.235" cy="76" rx="15.5" ry="15"/><g stroke-linecap="round" stroke-miterlimit="10"><path d="M134.293 29.986H92.715c-2.7.001-5.288-1.072-7.195-2.982l-9.74-9.74"/><path d="M70.69 70.69h33.96c2.15-6.097 7.912-10.175 14.377-10.175s12.227 4.078 14.376 10.175h16.153a10.18 10.18 0 0 0 10.176-10.176V50.338c-.001-11.24-9.113-20.352-20.353-20.353h-12.626c-3.256 0-6.315-1.557-8.23-4.2L108.84 12.48A25.44 25.44 0 0 0 88.266 2h-49.79c-4.918 0-9.13 3.517-10.01 8.355l-2.05 11.273A10.18 10.18 0 0 1 16.4 29.985h-4.224A10.18 10.18 0 0 0 2 40.162v20.352a10.18 10.18 0 0 0 10.176 10.177h13.61c2.15-6.097 7.912-10.175 14.377-10.175s12.227 4.078 14.377 10.175"/></g></svg>