<svg xmlns="http://www.w3.org/2000/svg" viewBox="0 0 161.735 93"><g transform="translate(98 -65)"><g transform="translate(-96 67)"><ellipse cx="15.5" cy="15" rx="15.5" ry="15" transform="translate(22.735 59)" stroke-width="4" stroke="#28c7fa" stroke-linecap="round" stroke-linejoin="round" stroke-miterlimit="10" fill="none"/><ellipse cx="15.5" cy="15" rx="15.5" ry="15" transform="translate(101.735 59)" stroke-width="4" stroke="#28c7fa" stroke-linecap="round" stroke-linejoin="round" stroke-miterlimit="10" fill="none"/><path d="M96.514,31.721H54.936a10.165,10.165,0,0,1-7.195-2.982L38,19" transform="translate(35.779 -3.735)" fill="none" stroke="#28c7fa" stroke-linecap="round" stroke-linejoin="round" stroke-miterlimit="10" stroke-width="4"/><path d="M77.691,81.691h33.961a15.244,15.244,0,0,1,28.753,0h16.153a10.177,10.177,0,0,0,10.176-10.176V61.338a20.354,20.354,0,0,0-20.353-20.353H133.755a10.176,10.176,0,0,1-8.23-4.19L115.84,23.479A25.439,25.439,0,0,0,95.266,13H45.477a10.175,10.175,0,0,0-10.011,8.355L33.416,32.628A10.177,10.177,0,0,1,23.4,40.985H19.176A10.177,10.177,0,0,0,9,51.162V71.514A10.177,10.177,0,0,0,19.176,81.691H32.785a15.244,15.244,0,0,1,28.753,0" transform="translate(-9 -13)" fill="none" stroke="#28c7fa" stroke-linecap="round" stroke-linejoin="round" stroke-miterlimit="10" stroke-width="4"/></g></g></svg>