<svg xmlns="http://www.w3.org/2000/svg" viewBox="0 0 128.932 102.946" xmlns:v="https://vecta.io/nano"><g fill="#28c7fa"><circle cx="105.157" cy="57.479" r="7.555"/><circle cx="112.267" cy="52.146" r="9.332"/><circle cx="122.044" cy="47.035" r="5.555"/><circle cx="98.49" cy="42.813" r="3.777"/><circle cx="100.712" cy="48.146" r="5.777"/><circle cx="100.713" cy="57.701" r="6.666"/><path d="M112.49 39.702l-2-1.778a6.48 6.48 0 0 0-1.777-6.442 7.51 7.51 0 0 0-4.222-2 10.98 10.98 0 0 1-6.666-3.111l-7.555-6.89-2.222 4 5.777 6.222a11.26 11.26 0 0 1 3.333 7.333c.204 1.52.907 2.926 2 4a6.6 6.6 0 0 0 7.11 1.555l1.555 1.778z"/></g><path d="M90.49 19.482l-2.444 4 6 6 3.555-3.555z" fill="#775ada"/><g fill="#28c7fa"><circle cx="110.934" cy="37.48" r="6.888"/><path d="M113.6 39.258a5.3 5.3 0 0 0-3.333 3.555 7.58 7.58 0 0 0-10 11.11 7.6 7.6 0 0 0 11.554.667l.667-.667a7.83 7.83 0 0 1 4.444-3.111 6.05 6.05 0 0 0 3.555-1.778c1.358-1.375 2-3.302 1.74-5.217s-1.396-3.6-3.073-4.56a7.94 7.94 0 0 0-5.554.001z"/><circle cx="122.266" cy="38.369" r="6.666"/><circle cx="120.044" cy="26.148" r="1.555"/><circle cx="114.712" cy="27.704" r=".667"/><circle cx="112.712" cy="22.371" r="2.222"/><circle cx="107.379" cy="27.481" r=".222"/><circle cx="120.489" cy="19.705" r="1.111"/><circle cx="103.602" cy="25.038" r=".667"/><circle cx="107.601" cy="24.593" r=".444"/></g><path d="M72.27 17.705l-1.778 8.666c-.095.56.07 1.13.444 1.555h0a1.83 1.83 0 0 0 2.666-.222l6-9.1" fill="#775ada"/><path d="M30.942 100.14l30.22-46.218c1.62-2.467 1.246-5.74-.89-7.777l-3.11-3.11a11.81 11.81 0 0 1 0-16.443l3.333-3.333L50.05 12.816 33.386 29.48 5.833 57.256c-7.777 7.8-7.777 20.42 0 28.22l15.554 15.554a6.08 6.08 0 0 0 9.555-.889z" fill="#28c7fa"/><path d="M54.495 64.145L41.607 51.257c-1.442-1.334-3.67-1.334-5.11 0l-18.22 18.22c-1.334 1.442-1.334 3.67 0 5.11l16.617 17.52 18.94-28.558z" fill="#fff" stroke="#707070"/><path d="M31.83 71.033l-4.222-4.222c-.213-.203-.333-.484-.333-.778s.12-.575.333-.778h0c.203-.213.484-.333.777-.333s.575.12.778.333l4.222 4c.213.203.333.484.333.778s-.12.575-.333.778h0a.95.95 0 0 1-1.555.222zM28.942 73.7l-4.222-4.222c-.213-.203-.333-.484-.333-.778s.12-.575.333-.778h0c.203-.213.484-.333.777-.333a1.07 1.07 0 0 1 .777.333l4.222 4.222c.213.203.333.484.333.778s-.12.575-.333.778h0c-.222.44-1.1.44-1.555 0z" fill="#28c7fa"/><path d="M23.387 73.7l-1.333-1.333c-.213-.203-.333-.484-.333-.777s.12-.575.333-.778h0c.203-.213.484-.333.777-.333s.575.12.778.333l1.333 1.333c.213.203.333.484.333.778s-.12.575-.333.778h0c-.203.213-.484.333-.777.333s-.575-.12-.777-.333z" fill="#fff"/><path d="M58.717 27.037L47.384 15.705a1.35 1.35 0 0 1 0-1.778l.89-.89a1.35 1.35 0 0 1 1.778 0L61.383 24.37a1.35 1.35 0 0 1 0 1.778l-1.11.89c-.203.213-.484.333-.778.333s-.575-.12-.777-.334z" fill="#6c63ff"/><g fill="#28c7fa"><path d="M72.493 4.15L65.827.595c-2.188-1.172-4.9-.61-6.444 1.333L50.05 13.26l10.443 10.443c2.062 2.064 5.376 2.16 7.555.222l4.222-3.558a5.38 5.38 0 0 1 6.888-.444l6.666 4.222a2.33 2.33 0 0 0 2.889-.222l3.337-3.33a1.66 1.66 0 0 0 0-2A82.5 82.5 0 0 0 72.493 4.151z"/><circle cx="89.603" cy="60.59" r="1.111"/><circle cx="86.047" cy="51.924" r="2.444"/><circle cx="91.824" cy="51.923" r=".444"/><path d="M104.5 72.8l2-3.333a.49.49 0 0 0-.667-.667l-3.333 2a3.41 3.41 0 0 1-3.555 0l-3.332-2.22a.49.49 0 0 0-.667.667l2 3.333a3.41 3.41 0 0 1 0 3.555l-2 3.333a.49.49 0 0 0 .667.667l3.333-2a3.41 3.41 0 0 1 3.555 0l3.333 2a.49.49 0 0 0 .667-.667l-2-3.1a3.41 3.41 0 0 1-.001-3.556zm18.432-2.655l2.9-.672c.184 0 .334-.15.334-.334s-.15-.334-.334-.334l-2.9-.667a2.99 2.99 0 0 1-2-2l-.67-2.883c0-.184-.15-.334-.333-.334s-.334.15-.334.334l-.667 2.9a2.99 2.99 0 0 1-2 2l-2.9.667c-.184 0-.334.15-.334.334s.15.334.334.334l2.9.667a2.99 2.99 0 0 1 2 2l.667 2.9c0 .184.15.334.334.334s.333-.15.333-.334l.667-2.9a2.99 2.99 0 0 1 2.004-2.001zM79.826 58.8l-.222-1.1c0-.222-.222-.222-.222 0l-.223 1.1a.71.71 0 0 1-.667.667l-1.1.222c-.222 0-.222.222 0 .222l1.1.225a.71.71 0 0 1 .667.667l.222 1.1c0 .222.222.222.222 0l.225-1.114a.71.71 0 0 1 .664-.664l1.1-.222c.222 0 .222-.222 0-.222l-1.1-.223a.71.71 0 0 1-.664-.669z"/><circle cx="88.936" cy="46.591" r=".444"/><circle cx="91.603" cy="43.703" r=".667"/><circle cx="90.936" cy="40.147" r=".222"/></g></svg>