<svg xmlns="http://www.w3.org/2000/svg"  viewBox="0 0 128.932 102.946"><g transform="translate(-2.975 -8.832)"><circle cx="7.555" cy="7.555" r="7.555" transform="translate(100.577 58.756)" fill="#28c7fa"/><circle cx="9.332" cy="9.332" r="9.332" transform="translate(105.91 51.646)" fill="#28c7fa"/><circle cx="5.555" cy="5.555" r="5.555" transform="translate(119.464 50.312)" fill="#28c7fa"/><circle cx="3.777" cy="3.777" r="3.777" transform="translate(97.688 47.868)" fill="#28c7fa"/><circle cx="5.777" cy="5.777" r="5.777" transform="translate(97.91 51.201)" fill="#28c7fa"/><circle cx="6.666" cy="6.666" r="6.666" transform="translate(97.022 59.867)" fill="#28c7fa"/><path d="M67.042,37.82l-2-1.778A6.48,6.48,0,0,0,63.265,29.6a7.508,7.508,0,0,0-4.222-2,10.981,10.981,0,0,1-6.666-3.111L44.822,17.6l-2.222,4,5.777,6.222a11.261,11.261,0,0,1,3.333,7.333,6.894,6.894,0,0,0,2,4,6.6,6.6,0,0,0,7.11,1.555l1.555,1.778Z" transform="translate(48.422 10.714)" fill="#28c7fa"/><path d="M45.044,17.6l-2.444,4,6,6h0l3.555-3.555Z" transform="translate(48.422 10.714)" fill="#775ada"/><circle cx="6.888" cy="6.888" r="6.888" transform="translate(107.021 39.424)" fill="#28c7fa"/><path d="M62.321,26.775a5.3,5.3,0,0,0-3.333,3.555,7.581,7.581,0,0,0-10,11.11,7.6,7.6,0,0,0,11.554.667l.667-.667a7.831,7.831,0,0,1,4.444-3.111,6.049,6.049,0,0,0,3.555-1.778,6.226,6.226,0,0,0-1.333-9.777A7.939,7.939,0,0,0,62.321,26.775Z" transform="translate(54.255 21.315)" fill="#28c7fa"/><circle cx="6.666" cy="6.666" r="6.666" transform="translate(118.575 40.535)" fill="#28c7fa"/><circle cx="1.555" cy="1.555" r="1.555" transform="translate(121.464 33.425)" fill="#28c7fa"/><circle cx="0.667" cy="0.667" r="0.667" transform="translate(117.02 35.869)" fill="#28c7fa"/><circle cx="2.222" cy="2.222" r="2.222" transform="translate(113.465 28.981)" fill="#28c7fa"/><circle cx="0.222" cy="0.222" r="0.222" transform="translate(110.132 36.091)" fill="#28c7fa"/><circle cx="1.111" cy="1.111" r="1.111" transform="translate(122.353 27.426)" fill="#28c7fa"/><circle cx="0.667" cy="0.667" r="0.667" transform="translate(105.91 33.203)" fill="#28c7fa"/><circle cx="0.444" cy="0.444" r="0.444" transform="translate(110.132 32.981)" fill="#28c7fa"/><g transform="translate(2.975 8.832)"><path d="M36.478,16.8,34.7,25.466a1.875,1.875,0,0,0,.444,1.555h0a1.829,1.829,0,0,0,2.666-.222l6-9.11" transform="translate(35.793 0.905)" fill="#775ada"/><path d="M33.917,101.925,64.136,55.707a6.113,6.113,0,0,0-.889-7.777l-3.111-3.111a11.806,11.806,0,0,1,0-16.443l3.333-3.333L53.026,14.6,37.25,30.376l-.889.889L8.808,59.04a19.983,19.983,0,0,0,0,28.22l15.554,15.554A6.079,6.079,0,0,0,33.917,101.925Z" transform="translate(-2.975 -1.784)" fill="#28c7fa"/><path d="M47.969,45.338,35.081,32.45a3.763,3.763,0,0,0-5.111,0L11.75,50.67a3.763,3.763,0,0,0,0,5.111L28.367,73.3l18.94-28.558Z" transform="translate(6.526 18.807)" fill="#fff" stroke="#707070" stroke-width="1"/><path d="M19.805,44.161l-4.222-4.222a1.074,1.074,0,0,1,0-1.555h0a1.074,1.074,0,0,1,1.555,0l4.222,4a1.074,1.074,0,0,1,0,1.555h0A.952.952,0,0,1,19.805,44.161Z" transform="translate(12.025 26.872)" fill="#28c7fa"/><path d="M18.505,45.361l-4.222-4.222a1.074,1.074,0,0,1,0-1.555h0a1.074,1.074,0,0,1,1.555,0l4.222,4.222a1.074,1.074,0,0,1,0,1.555h0C19.838,45.8,18.95,45.8,18.505,45.361Z" transform="translate(10.437 28.339)" fill="#28c7fa"/><path d="M14.417,43.772l-1.333-1.333a1.074,1.074,0,0,1,0-1.555h0a1.074,1.074,0,0,1,1.555,0l1.333,1.333a1.074,1.074,0,0,1,0,1.555h0A1.074,1.074,0,0,1,14.417,43.772Z" transform="translate(8.97 29.927)" fill="#fff"/><path d="M35.816,28.882,24.483,17.55a1.352,1.352,0,0,1,0-1.778l.889-.889a1.352,1.352,0,0,1,1.778,0L38.482,26.216a1.352,1.352,0,0,1,0,1.778l-1.111.889A1.074,1.074,0,0,1,35.816,28.882Z" transform="translate(22.901 -1.845)" fill="#6c63ff"/><path d="M47.942,12.983,41.276,9.427a5.133,5.133,0,0,0-6.444,1.333L25.5,22.093,35.943,32.536a5.506,5.506,0,0,0,7.555.222L47.72,29.2a5.381,5.381,0,0,1,6.888-.444l6.666,4.222a2.329,2.329,0,0,0,2.889-.222L67.5,29.425a1.658,1.658,0,0,0,0-2A82.5,82.5,0,0,0,47.942,12.983Z" transform="translate(24.551 -8.832)" fill="#28c7fa"/><path d="M28.965,20.6" transform="translate(28.785 5.544)" fill="none" stroke="#707070" stroke-width="1"/></g><circle cx="1.111" cy="1.111" r="1.111" transform="translate(91.467 68.311)" fill="#28c7fa"/><circle cx="2.444" cy="2.444" r="2.444" transform="translate(86.578 58.312)" fill="#28c7fa"/><circle cx="0.444" cy="0.444" r="0.444" transform="translate(94.355 60.311)" fill="#28c7fa"/><path d="M55.287,43.954l2-3.333a.491.491,0,0,0-.667-.667l-3.333,2a3.41,3.41,0,0,1-3.555,0L46.4,39.733a.491.491,0,0,0-.667.667l2,3.333a3.41,3.41,0,0,1,0,3.555l-2,3.333a.491.491,0,0,0,.667.667l3.333-2a3.41,3.41,0,0,1,3.555,0l3.333,2a.491.491,0,0,0,.667-.667l-2-3.111A3.41,3.41,0,0,1,55.287,43.954Z" transform="translate(52.178 37.688)" fill="#28c7fa"/><path d="M63.371,44.372,66.26,43.7a.333.333,0,1,0,0-.667l-2.889-.667a2.988,2.988,0,0,1-2-2L60.7,37.483a.333.333,0,0,0-.667,0l-.667,2.889a2.988,2.988,0,0,1-2,2l-2.889.667a.333.333,0,0,0,0,.667l2.889.667a2.988,2.988,0,0,1,2,2l.667,2.889a.333.333,0,0,0,.667,0l.667-2.889A2.988,2.988,0,0,1,63.371,44.372Z" transform="translate(62.536 34.605)" fill="#28c7fa"/><path d="M40.336,36l-.222-1.111c0-.222-.222-.222-.222,0L39.669,36a.709.709,0,0,1-.667.667l-1.111.222c-.222,0-.222.222,0,.222L39,37.336a.709.709,0,0,1,.667.667l.222,1.111c0,.222.222.222.222,0L40.336,38A.709.709,0,0,1,41,37.336l1.111-.222c.222,0,.222-.222,0-.222L41,36.669A.709.709,0,0,1,40.336,36Z" transform="translate(42.465 31.641)" fill="#28c7fa"/><circle cx="0.444" cy="0.444" r="0.444" transform="translate(91.467 54.979)" fill="#28c7fa"/><circle cx="0.667" cy="0.667" r="0.667" transform="translate(93.911 51.868)" fill="#28c7fa"/><circle cx="0.222" cy="0.222" r="0.222" transform="translate(93.689 48.757)" fill="#28c7fa"/></g></svg>