<svg xmlns="http://www.w3.org/2000/svg" width="93.735" height="68.709" viewBox="0 0 93.735 68.709"><g transform="translate(-115.352 -151.33)"><path d="M193.281,212.327a18,18,0,0,0,3.6-35.645,25.643,25.643,0,0,0-45.856-6.61,21.653,21.653,0,1,0-6.673,42.255" transform="translate(-4.796 -4.753)" fill="#d8bf9e"/><path d="M188.485,210.2a20.614,20.614,0,0,0,4.29-40.773l1.823,1.823a28.257,28.257,0,0,0-50.625-7.219l2.947-1.2A24.259,24.259,0,1,0,139.55,210.2c3.361.038,3.361-5.18,0-5.218a19.043,19.043,0,1,1,5.977-37.124,2.685,2.685,0,0,0,2.947-1.2,23.03,23.03,0,0,1,41.086,5.98,2.623,2.623,0,0,0,1.823,1.823,15.391,15.391,0,0,1-2.919,30.51c-3.354.045-3.364,5.264,0,5.218Z" fill="#28c7fa"/><path d="M191.091,282.458c3.357,0,3.364-5.218,0-5.218S187.726,282.458,191.091,282.458Z" transform="translate(-47.745 -82.107)" fill="#28c7fa"/><path d="M218.941,282.458c3.357,0,3.364-5.218,0-5.218S215.576,282.458,218.941,282.458Z" transform="translate(-65.906 -82.107)" fill="#28c7fa"/><path d="M246.791,282.458c3.357,0,3.364-5.218,0-5.218S243.426,282.458,246.791,282.458Z" transform="translate(-84.067 -82.107)" fill="#28c7fa"/><path d="M274.641,282.458c3.357,0,3.364-5.218,0-5.218S271.276,282.458,274.641,282.458Z" transform="translate(-102.228 -82.107)" fill="#28c7fa"/><path d="M302.481,282.458c3.357,0,3.364-5.218,0-5.218S299.116,282.458,302.481,282.458Z" transform="translate(-120.383 -82.107)" fill="#28c7fa"/><path d="M224.091,339.048c3.357,0,3.364-5.218,0-5.218S220.726,339.048,224.091,339.048Z" transform="translate(-69.264 -119.01)" fill="#28c7fa"/><path d="M251.941,339.048c3.357,0,3.364-5.218,0-5.218S248.576,339.048,251.941,339.048Z" transform="translate(-87.425 -119.01)" fill="#28c7fa"/><path d="M279.791,339.048c3.357,0,3.364-5.218,0-5.218S276.426,339.048,279.791,339.048Z" transform="translate(-105.587 -119.01)" fill="#28c7fa"/><path d="M307.641,339.048c3.357,0,3.364-5.218,0-5.218S304.276,339.048,307.641,339.048Z" transform="translate(-123.748 -119.01)" fill="#28c7fa"/><path d="M335.491,339.048c3.357,0,3.364-5.218,0-5.218S332.126,339.048,335.491,339.048Z" transform="translate(-141.909 -119.01)" fill="#28c7fa"/><path d="M206.351,310.758c3.357,0,3.364-5.218,0-5.218S202.986,310.758,206.351,310.758Z" transform="translate(-57.696 -100.561)" fill="#28c7fa"/><path d="M236.111,310.758c3.357,0,3.364-5.218,0-5.218S232.746,310.758,236.111,310.758Z" transform="translate(-77.103 -100.561)" fill="#28c7fa"/><path d="M265.861,310.758c3.357,0,3.364-5.218,0-5.218S262.5,310.758,265.861,310.758Z" transform="translate(-96.503 -100.561)" fill="#28c7fa"/><path d="M295.621,310.758c3.357,0,3.364-5.218,0-5.218S292.256,310.758,295.621,310.758Z" transform="translate(-115.909 -100.561)" fill="#28c7fa"/></g></svg>