<svg xmlns="http://www.w3.org/2000/svg" width="86.361" height="86.177" viewBox="0 0 86.361 86.177"><path d="M83.022,50.833c-.831-.9-1.684-1.821-2.9-3.062a70.094,70.094,0,0,0,7.893.4,1.108,1.108,0,0,0,0-2.215,62.6,62.6,0,0,1-9.219-.58c1.93-1.883,3.1-3.031,4.24-4.152,1.434-1.407,2.843-2.79,5.732-5.6a1.108,1.108,0,0,0-1.546-1.588c-2.892,2.816-4.3,4.2-5.738,5.611-1.351,1.326-2.735,2.684-5.392,5.274-.62-.12-1.232-.242-1.845-.366A61.35,61.35,0,0,0,60.035,43.1a36.59,36.59,0,0,0-12.142,1.775A47.751,47.751,0,0,0,55.7,35.5c4.348-6.423,7.07-8.443,10.4-10.771l.028.018a.968.968,0,0,0,.152.1,1.206,1.206,0,0,0,.235.052,1.128,1.128,0,0,0,.186.04h.03c3.957-.052,6.21-.025,8.393,0,1.27.015,2.565.03,4.2.03,1.193,0,2.565-.007,4.243-.03a1.108,1.108,0,0,0-.015-2.215h-.015c-3.957.052-6.21.025-8.393,0-1.744-.021-3.549-.04-6.206-.022a60.994,60.994,0,0,0,7.086-6.157,1.108,1.108,0,1,0-1.567-1.567,59.777,59.777,0,0,1-6.488,5.683,29.968,29.968,0,0,1,.7-4.295,33.4,33.4,0,0,0,.907-7.931,1.109,1.109,0,0,0-1.093-1.122h-.015a1.109,1.109,0,0,0-1.108,1.093,31.129,31.129,0,0,1-.855,7.481,32.09,32.09,0,0,0-.868,6.457c-.154.106-.309.216-.459.322-3.679,2.571-6.586,4.6-11.318,11.6A45.613,45.613,0,0,1,46.47,43.18a51.922,51.922,0,0,0,1.063-11.251,44.005,44.005,0,0,0-2.087-14.3c-.059-.2-.117-.4-.174-.606,2.692-2.759,4.51-4.419,6.267-6.021C53.339,9.361,55.2,7.663,57.99,4.8A1.108,1.108,0,1,0,56.4,3.251c-2.746,2.818-4.583,4.494-6.36,6.116C48.47,10.8,46.848,12.283,44.6,14.548a41.729,41.729,0,0,1-1.151-10.6,1.108,1.108,0,0,0-2.215,0,50.627,50.627,0,0,0,.495,7.441c-.408-.626-.744-1.208-1.084-1.8a27.571,27.571,0,0,0-4.866-6.428A1.108,1.108,0,1,0,34.189,4.71a25.338,25.338,0,0,1,4.531,5.984,26.761,26.761,0,0,0,4.026,5.537c.188.69.38,1.362.572,2.02a41.676,41.676,0,0,1,2,13.678,49.808,49.808,0,0,1-.885,10.135,45.611,45.611,0,0,0-6.473-7.86,50.628,50.628,0,0,0-11.34-8.816c-1.388-.831-2.751-1.659-4.255-2.731a17.033,17.033,0,0,1,1.072-6.472,19.455,19.455,0,0,0,1.2-7.779,1.107,1.107,0,0,0-1.108-1.093H23.51a1.107,1.107,0,0,0-1.093,1.122,17.345,17.345,0,0,1-1.077,7.026A18.269,18.269,0,0,0,20.2,21a60.015,60.015,0,0,1-4.491-4.1,1.108,1.108,0,0,0-1.567,1.567c1.477,1.477,2.782,2.663,3.988,3.682a19.239,19.239,0,0,0-3.453.424,23.893,23.893,0,0,1-6.122.415,1.085,1.085,0,0,0-1.122,1.093A1.109,1.109,0,0,0,8.521,25.21q.541.007,1.018.006a23.531,23.531,0,0,0,5.575-.465,23.255,23.255,0,0,1,5.784-.416c1.663,1.2,3.137,2.093,4.58,2.957A48.078,48.078,0,0,1,36.39,35.773a40.751,40.751,0,0,1,7.355,9.463c-.01.047-.022.095-.032.142-.4.294-.812.586-1.232.886q-.479.341-.978.7a35.981,35.981,0,0,1-9.454,1.074,34.316,34.316,0,0,1-13.613-2.456c-1.183-.427-2.391-.854-3.729-1.238-2.007-2.02-3.068-3.283-4.171-4.6a68.558,68.558,0,0,0-5.478-5.908,1.108,1.108,0,0,0-1.546,1.588,65.734,65.734,0,0,1,5.326,5.744c.6.715,1.214,1.447,1.991,2.308A42.979,42.979,0,0,0,4.072,43a1.108,1.108,0,0,0,0,2.215,35.176,35.176,0,0,1,9.473,1.1c.021.021.043.041.062.062-2.093,2-3.382,3.125-4.629,4.208C7.493,51.876,5.957,53.209,3.1,56a1.108,1.108,0,1,0,1.545,1.588c2.816-2.743,4.329-4.057,5.789-5.327,1.439-1.249,2.935-2.554,5.624-5.163.546.189,1.087.381,1.629.576a36.654,36.654,0,0,0,14.364,2.586,45.518,45.518,0,0,0,5.646-.331c-1.159.982-2.434,2.14-3.875,3.583a60.442,60.442,0,0,0-9.006,11.086c-.318.484-.638.966-.963,1.45a66.526,66.526,0,0,0-7.506.515,64.1,64.1,0,0,1-7.82.508,1.108,1.108,0,0,0,.015,2.215h.015a66.917,66.917,0,0,0,8.049-.523c1.6-.188,3.138-.365,5.66-.456a61.184,61.184,0,0,1-6.172,7.027A1.108,1.108,0,1,0,17.655,76.9a65.89,65.89,0,0,0,5.925-6.67c-.087,2.238-.233,3.672-.387,5.165a77.8,77.8,0,0,0-.465,8.026,1.109,1.109,0,0,0,1.093,1.122h.015a1.107,1.107,0,0,0,1.108-1.093,74.878,74.878,0,0,1,.453-7.828,77.919,77.919,0,0,0,.465-8.031,1.117,1.117,0,0,0-.086-.439c.3-.452.6-.9.886-1.337a57.918,57.918,0,0,1,8.721-10.737,56.158,56.158,0,0,1,7.1-6.08c.173-.047.338-.1.507-.148a60.352,60.352,0,0,0-.861,11.069c0,6.981-.095,10.529-.185,13.961-.022.833-.044,1.676-.065,2.57a21.288,21.288,0,0,0-4.017,5.287,19.791,19.791,0,0,1-3.963,5.12,1.108,1.108,0,0,0,.021,1.567,1.106,1.106,0,0,0,1.566-.021A21.856,21.856,0,0,0,39.806,82.8a15.987,15.987,0,0,1,2.006-2.972c-.032,2.146-.055,4.707-.055,8.074a1.108,1.108,0,0,0,2.215,0c0-3.574.025-6.243.062-8.461a34.762,34.762,0,0,0,5.476,3.877A30.162,30.162,0,0,1,56.4,88.6a1.11,1.11,0,0,0,.793.335,1.1,1.1,0,0,0,.772-.315,1.108,1.108,0,0,0,.021-1.567,32.351,32.351,0,0,0-7.327-5.636,30.394,30.394,0,0,1-6.56-4.965c.021-.874.043-1.7.064-2.514.092-3.446.186-7.009.186-14.019a56.666,56.666,0,0,1,1.028-11.741,43.21,43.21,0,0,0,7.915,10.284,35.278,35.278,0,0,0,12.086,8.256c.372.168.743.337,1.112.508a1.131,1.131,0,0,0-.068.362c.05,3.97.084,5.956.117,7.941s.066,3.964.117,7.927a1.107,1.107,0,0,0,1.108,1.093h.015a1.108,1.108,0,0,0,1.093-1.122c-.05-3.967-.084-5.95-.117-7.935-.031-1.854-.062-3.726-.106-7.2a32.844,32.844,0,0,1,8.163,6.23,1.108,1.108,0,0,0,1.566-1.567,41.4,41.4,0,0,0-5.086-4.389c.768.095,1.461.2,2.164.31a49.99,49.99,0,0,0,8.077.676h.015a1.108,1.108,0,0,0,.015-2.215,47.307,47.307,0,0,1-7.767-.65,48.137,48.137,0,0,0-6.667-.645c-.97-.495-1.908-.923-2.834-1.343a32.955,32.955,0,0,1-11.433-7.8,40.782,40.782,0,0,1-7.4-9.532,34.206,34.206,0,0,1,12.573-2.038A58.7,58.7,0,0,1,73.8,46.73c.86.174,1.727.352,2.651.52,2.438,2.394,3.717,3.775,4.942,5.1,1.335,1.446,2.718,2.939,5.578,5.729a1.108,1.108,0,0,0,1.545-1.588C85.7,53.729,84.339,52.257,83.022,50.833Z" transform="translate(-2.762 -2.829)" fill="#28c7fa"/></svg>