<svg xmlns="http://www.w3.org/2000/svg" width="132.582" height="101.305" fill="#775ada" xmlns:v="https://vecta.io/nano"><path d="M131.198 13.84l-5.26-5.26-48.715 48.715c-6.233 6.1-16.187 6.1-22.42 0L6.09 8.857.83 14.116 37.09 50.38.83 86.635l5.26 5.26 36.26-36.26 7.2 7.2c4.304 4.4 10.183 6.88 16.33 6.92 6.148-.04 12.027-2.53 16.33-6.92l7.2-7.2 36.26 36.26 5.26-5.26L94.662 50.38l36.536-36.536"/><path d="M120.957 101.3H11.625C5.224 101.26.044 96.08 0 89.68V11.625C.04 5.222 5.222.04 11.625 0h109.332c6.403.04 11.584 5.222 11.625 11.625V89.68c-.044 6.4-5.224 11.58-11.625 11.62zM11.348 7.473c-1.035-.025-2.036.375-2.768 1.107s-1.132 1.733-1.107 2.768V89.4c-.025 1.035.375 2.036 1.107 2.768s1.733 1.132 2.768 1.107H120.68c1.035.025 2.036-.375 2.768-1.107s1.132-1.733 1.107-2.768V11.345c.025-1.035-.375-2.036-1.107-2.768s-1.733-1.132-2.768-1.107z"/></svg>