<svg xmlns="http://www.w3.org/2000/svg" width="94.621" height="116.875" viewBox="0 0 94.621 116.875"><g transform="translate(-59.67 -13.5)"><g transform="translate(59.67 13.5)"><g transform="translate(0)"><g transform="translate(14.63 21.116)"><path d="M122.069,104.5a1.682,1.682,0,0,1-1.656-2.017,1.771,1.771,0,0,1,.1-.316,1.7,1.7,0,0,1,.157-.292,1.516,1.516,0,0,1,.21-.255,1.643,1.643,0,0,1,.255-.21,1.885,1.885,0,0,1,.292-.157,1.765,1.765,0,0,1,.316-.094,1.593,1.593,0,0,1,.658,0,1.765,1.765,0,0,1,.316.094,1.885,1.885,0,0,1,.292.157,1.642,1.642,0,0,1,.255.21,1.516,1.516,0,0,1,.21.255,1.7,1.7,0,0,1,.157.292,1.772,1.772,0,0,1,.1.316,1.7,1.7,0,0,1-.463,1.523,1.792,1.792,0,0,1-.255.21,1.687,1.687,0,0,1-.292.154,1.593,1.593,0,0,1-.316.1A1.68,1.68,0,0,1,122.069,104.5Z" transform="translate(-120.38 -101.128)" fill="#28c7fa"/></g><g transform="translate(14.63 28.756)"><path d="M198.686,220.949H147.478a1.686,1.686,0,0,1-1.687-1.687V143.939H122.067a1.686,1.686,0,0,1-1.687-1.687v-7.735a1.687,1.687,0,0,1,3.374,0v6.049h23.724a1.686,1.686,0,0,1,1.687,1.687v75.323H197V197.7a1.687,1.687,0,1,1,3.374,0v21.563A1.684,1.684,0,0,1,198.686,220.949Z" transform="translate(-120.38 -132.83)" fill="#28c7fa"/></g><g transform="translate(91.25 86.626)"><path d="M440.017,376.35a1.686,1.686,0,0,1-.33-.034,1.6,1.6,0,0,1-.316-.1,1.691,1.691,0,0,1-.292-.154,1.8,1.8,0,0,1-.255-.21,1.443,1.443,0,0,1-.21-.258,1.678,1.678,0,0,1-.157-.289,1.9,1.9,0,0,1-.1-.316,1.755,1.755,0,0,1,0-.66,1.771,1.771,0,0,1,.1-.316,1.7,1.7,0,0,1,.157-.292,1.686,1.686,0,0,1,.465-.465,1.886,1.886,0,0,1,.292-.157,1.771,1.771,0,0,1,.316-.1,1.68,1.68,0,0,1,.658,0,1.77,1.77,0,0,1,.316.1,1.884,1.884,0,0,1,.292.157,1.687,1.687,0,0,1,.465.465,1.7,1.7,0,0,1,.157.292,1.774,1.774,0,0,1,.1.316,1.756,1.756,0,0,1,0,.66,1.9,1.9,0,0,1-.1.316,1.678,1.678,0,0,1-.157.289,1.441,1.441,0,0,1-.21.258,1.794,1.794,0,0,1-.255.21,1.691,1.691,0,0,1-.292.154,1.593,1.593,0,0,1-.316.1A1.68,1.68,0,0,1,440.017,376.35Z" transform="translate(-438.33 -372.975)" fill="#28c7fa"/></g><g transform="translate(14.63)"><path d="M198.686,97.041A1.686,1.686,0,0,1,197,95.354V16.874H123.754V31.039a1.687,1.687,0,0,1-3.374,0V15.187a1.686,1.686,0,0,1,1.687-1.687h76.617a1.686,1.686,0,0,1,1.687,1.687V95.354A1.684,1.684,0,0,1,198.686,97.041Z" transform="translate(-120.38 -13.5)" fill="#28c7fa"/></g><g transform="translate(8.608 49.647)"><path d="M104.215,230.032H97.077a1.686,1.686,0,0,1-1.687-1.687v-7.138a1.686,1.686,0,0,1,1.687-1.687h7.138a1.686,1.686,0,0,1,1.687,1.687v7.138A1.686,1.686,0,0,1,104.215,230.032Zm-5.451-3.374h3.764v-3.764H98.764Z" transform="translate(-95.39 -219.52)" fill="#28c7fa"/><g transform="translate(15.69)"><path d="M169.325,230.032h-7.138a1.686,1.686,0,0,1-1.687-1.687v-7.138a1.686,1.686,0,0,1,1.687-1.687h7.138a1.686,1.686,0,0,1,1.687,1.687v7.138A1.687,1.687,0,0,1,169.325,230.032Zm-5.451-3.374h3.764v-3.764h-3.764Z" transform="translate(-160.5 -219.52)" fill="#28c7fa"/></g><g transform="translate(0 14.521)"><path d="M104.215,290.292H97.077A1.686,1.686,0,0,1,95.39,288.6v-7.138a1.686,1.686,0,0,1,1.687-1.687h7.138a1.686,1.686,0,0,1,1.687,1.687V288.6A1.687,1.687,0,0,1,104.215,290.292Zm-5.451-3.374h3.764v-3.764H98.764Z" transform="translate(-95.39 -279.78)" fill="#28c7fa"/></g><g transform="translate(15.69 14.521)"><path d="M169.325,290.292h-7.138A1.686,1.686,0,0,1,160.5,288.6v-7.138a1.686,1.686,0,0,1,1.687-1.687h7.138a1.686,1.686,0,0,1,1.687,1.687V288.6A1.689,1.689,0,0,1,169.325,290.292Zm-5.451-3.374h3.764v-3.764h-3.764Z" transform="translate(-160.5 -279.78)" fill="#28c7fa"/></g><g transform="translate(0 29.041)"><path d="M104.215,350.542H97.077a1.686,1.686,0,0,1-1.687-1.687v-7.138a1.686,1.686,0,0,1,1.687-1.687h7.138a1.686,1.686,0,0,1,1.687,1.687v7.138A1.686,1.686,0,0,1,104.215,350.542Zm-5.451-3.374h3.764V343.4H98.764Z" transform="translate(-95.39 -340.03)" fill="#28c7fa"/></g><g transform="translate(15.69 29.041)"><path d="M169.325,350.542h-7.138a1.686,1.686,0,0,1-1.687-1.687v-7.138a1.686,1.686,0,0,1,1.687-1.687h7.138a1.686,1.686,0,0,1,1.687,1.687v7.138A1.687,1.687,0,0,1,169.325,350.542Zm-5.451-3.374h3.764V343.4h-3.764Z" transform="translate(-160.5 -340.03)" fill="#28c7fa"/></g><g transform="translate(0 43.562)"><path d="M104.215,410.8H97.077a1.686,1.686,0,0,1-1.687-1.687v-7.138a1.686,1.686,0,0,1,1.687-1.687h7.138a1.686,1.686,0,0,1,1.687,1.687v7.138A1.687,1.687,0,0,1,104.215,410.8Zm-5.451-3.374h3.764v-3.764H98.764Z" transform="translate(-95.39 -400.29)" fill="#28c7fa"/></g><g transform="translate(15.69 43.562)"><path d="M169.325,410.8h-7.138a1.686,1.686,0,0,1-1.687-1.687v-7.138a1.686,1.686,0,0,1,1.687-1.687h7.138a1.686,1.686,0,0,1,1.687,1.687v7.138A1.689,1.689,0,0,1,169.325,410.8Zm-5.451-3.374h3.764v-3.764h-3.764Z" transform="translate(-160.5 -400.29)" fill="#28c7fa"/></g></g><g transform="translate(51.29 65.547)"><path d="M281.089,295.766H274.2a1.686,1.686,0,0,1-1.687-1.687v-6.892A1.686,1.686,0,0,1,274.2,285.5h6.892a1.686,1.686,0,0,1,1.687,1.687v6.892A1.687,1.687,0,0,1,281.089,295.766Zm-5.205-3.374H279.4v-3.518h-3.518Z" transform="translate(-272.51 -285.5)" fill="#28c7fa"/><g transform="translate(0 15.832)"><path d="M281.089,361.466H274.2a1.686,1.686,0,0,1-1.687-1.687v-6.892A1.686,1.686,0,0,1,274.2,351.2h6.892a1.686,1.686,0,0,1,1.687,1.687v6.892A1.687,1.687,0,0,1,281.089,361.466Zm-5.205-3.374H279.4v-3.518h-3.518Z" transform="translate(-272.51 -351.2)" fill="#28c7fa"/></g><g transform="translate(0 31.665)"><path d="M281.089,427.166H274.2a1.686,1.686,0,0,1-1.687-1.687v-6.892A1.686,1.686,0,0,1,274.2,416.9h6.892a1.686,1.686,0,0,1,1.687,1.687v6.892A1.689,1.689,0,0,1,281.089,427.166Zm-5.205-3.374H279.4v-3.518h-3.518Z" transform="translate(-272.51 -416.9)" fill="#28c7fa"/></g></g><g transform="translate(24.496 6.786)"><path d="M170.123,52.15h-7.116a1.686,1.686,0,0,1-1.687-1.687V43.347a1.686,1.686,0,0,1,1.687-1.687h7.116a1.686,1.686,0,0,1,1.687,1.687v7.116A1.686,1.686,0,0,1,170.123,52.15Zm-5.429-3.374h3.742V45.034h-3.742Z" transform="translate(-161.32 -41.66)" fill="#28c7fa"/></g><g transform="translate(41.429 6.786)"><path d="M240.393,52.15h-7.116a1.686,1.686,0,0,1-1.687-1.687V43.347a1.686,1.686,0,0,1,1.687-1.687h7.116a1.686,1.686,0,0,1,1.687,1.687v7.116A1.686,1.686,0,0,1,240.393,52.15Zm-5.429-3.374h3.742V45.034h-3.742Z" transform="translate(-231.59 -41.66)" fill="#28c7fa"/></g><g transform="translate(58.361 6.786)"><path d="M310.653,52.15h-7.116a1.686,1.686,0,0,1-1.687-1.687V43.347a1.686,1.686,0,0,1,1.687-1.687h7.116a1.686,1.686,0,0,1,1.687,1.687v7.116A1.686,1.686,0,0,1,310.653,52.15Zm-5.429-3.374h3.742V45.034h-3.742Z" transform="translate(-301.85 -41.66)" fill="#28c7fa"/></g><g transform="translate(76.41 6.786)"><path d="M385.553,52.15h-7.116a1.686,1.686,0,0,1-1.687-1.687V43.347a1.686,1.686,0,0,1,1.687-1.687h7.116a1.686,1.686,0,0,1,1.687,1.687v7.116A1.687,1.687,0,0,1,385.553,52.15Zm-5.429-3.374h3.742V45.034h-3.742Z" transform="translate(-376.75 -41.66)" fill="#28c7fa"/></g><g transform="translate(24.496 21.64)"><path d="M170.123,113.79h-7.116a1.686,1.686,0,0,1-1.687-1.687v-7.116a1.686,1.686,0,0,1,1.687-1.687h7.116a1.686,1.686,0,0,1,1.687,1.687V112.1A1.686,1.686,0,0,1,170.123,113.79Zm-5.429-3.374h3.742v-3.742h-3.742Z" transform="translate(-161.32 -103.3)" fill="#28c7fa"/></g><g transform="translate(41.429 21.64)"><path d="M240.393,113.79h-7.116a1.686,1.686,0,0,1-1.687-1.687v-7.116a1.686,1.686,0,0,1,1.687-1.687h7.116a1.686,1.686,0,0,1,1.687,1.687V112.1A1.686,1.686,0,0,1,240.393,113.79Zm-5.429-3.374h3.742v-3.742h-3.742Z" transform="translate(-231.59 -103.3)" fill="#28c7fa"/></g><g transform="translate(58.361 21.64)"><path d="M310.653,113.79h-7.116a1.686,1.686,0,0,1-1.687-1.687v-7.116a1.686,1.686,0,0,1,1.687-1.687h7.116a1.686,1.686,0,0,1,1.687,1.687V112.1A1.686,1.686,0,0,1,310.653,113.79Zm-5.429-3.374h3.742v-3.742h-3.742Z" transform="translate(-301.85 -103.3)" fill="#28c7fa"/></g><g transform="translate(76.41 21.64)"><path d="M385.553,113.79h-7.116a1.686,1.686,0,0,1-1.687-1.687v-7.116a1.686,1.686,0,0,1,1.687-1.687h7.116a1.686,1.686,0,0,1,1.687,1.687V112.1A1.687,1.687,0,0,1,385.553,113.79Zm-5.429-3.374h3.742v-3.742h-3.742Z" transform="translate(-376.75 -103.3)" fill="#28c7fa"/></g><g transform="translate(45.721 36.492)"><path d="M253.909,175.422h-2.636a1.687,1.687,0,1,1,0-3.374h.949V168.3h-1.135a1.687,1.687,0,0,1,0-3.374h2.822a1.686,1.686,0,0,1,1.687,1.687v7.119A1.686,1.686,0,0,1,253.909,175.422Z" transform="translate(-249.4 -164.93)" fill="#28c7fa"/></g><g transform="translate(58.361 36.494)"><path d="M310.653,175.43h-7.116a1.686,1.686,0,0,1-1.687-1.687v-7.116a1.686,1.686,0,0,1,1.687-1.687h7.116a1.686,1.686,0,0,1,1.687,1.687v7.116A1.687,1.687,0,0,1,310.653,175.43Zm-5.429-3.374h3.742v-3.742h-3.742Z" transform="translate(-301.85 -164.94)" fill="#28c7fa"/></g><g transform="translate(76.41 36.494)"><path d="M385.553,175.43h-7.116a1.686,1.686,0,0,1-1.687-1.687v-7.116a1.686,1.686,0,0,1,1.687-1.687h7.116a1.686,1.686,0,0,1,1.687,1.687v7.116A1.689,1.689,0,0,1,385.553,175.43Zm-5.429-3.374h3.742v-3.742h-3.742Z" transform="translate(-376.75 -164.94)" fill="#28c7fa"/></g><g transform="translate(76.41 51.346)"><path d="M385.553,237.06h-7.116a1.686,1.686,0,0,1-1.687-1.687v-7.116a1.686,1.686,0,0,1,1.687-1.687h7.116a1.686,1.686,0,0,1,1.687,1.687v7.116A1.687,1.687,0,0,1,385.553,237.06Zm-5.429-3.374h3.742v-3.742h-3.742Z" transform="translate(-376.75 -226.57)" fill="#28c7fa"/></g><g transform="translate(76.41 66.2)"><path d="M385.553,298.7h-7.116a1.686,1.686,0,0,1-1.687-1.687V289.9a1.686,1.686,0,0,1,1.687-1.687h7.116a1.686,1.686,0,0,1,1.687,1.687v7.116A1.687,1.687,0,0,1,385.553,298.7Zm-5.429-3.374h3.742v-3.742h-3.742Z" transform="translate(-376.75 -288.21)" fill="#28c7fa"/></g><g transform="translate(76.41 81.054)"><path d="M385.553,360.34h-7.116a1.686,1.686,0,0,1-1.687-1.687v-7.116a1.686,1.686,0,0,1,1.687-1.687h7.116a1.686,1.686,0,0,1,1.687,1.687v7.116A1.689,1.689,0,0,1,385.553,360.34Zm-5.429-3.374h3.742v-3.742h-3.742Z" transform="translate(-376.75 -349.85)" fill="#28c7fa"/></g><g transform="translate(76.41 95.905)"><path d="M385.553,421.97h-7.116a1.686,1.686,0,0,1-1.687-1.687v-7.116a1.686,1.686,0,0,1,1.687-1.687h7.116a1.686,1.686,0,0,1,1.687,1.687v7.116A1.687,1.687,0,0,1,385.553,421.97Zm-5.429-3.374h3.742v-3.742h-3.742Z" transform="translate(-376.75 -411.48)" fill="#28c7fa"/></g><g transform="translate(40.041 56.148)"><path d="M256.907,307.227h-29.39a1.686,1.686,0,0,1-1.687-1.687V248.187a1.686,1.686,0,0,1,1.687-1.687H256.9a1.687,1.687,0,1,1,0,3.374H229.2v53.98h26.014V255.346a1.687,1.687,0,0,1,3.374,0V305.54A1.684,1.684,0,0,1,256.907,307.227Z" transform="translate(-225.83 -246.5)" fill="#28c7fa"/></g><g transform="translate(0 36.492)"><path d="M101.4,245.314H61.357a1.686,1.686,0,0,1-1.687-1.687v-77.01a1.686,1.686,0,0,1,1.687-1.687H101.4a1.686,1.686,0,0,1,1.687,1.687v77.01A1.686,1.686,0,0,1,101.4,245.314ZM63.044,241.94H99.711V168.3H63.044Z" transform="translate(-59.67 -164.93)" fill="#28c7fa"/></g></g></g></g></svg>