<svg xmlns="http://www.w3.org/2000/svg" width="96.981" height="103.238" viewBox="0 0 96.981 103.238"><g transform="translate(-38.601 -69.47)"><g transform="translate(38.601 68.068)"><path d="M59.417,100.541H54.56v72.166Zm71.365,0v72.167h4.857V100.541ZM95.1,144.583a9.931,9.931,0,0,0-7.054,2.961,10.122,10.122,0,0,0-2.937,7.139v18.025H94.18V148.329a.919.919,0,1,1,1.838,0v24.378h9.064V154.683a10.15,10.15,0,0,0-2.929-7.139A9.912,9.912,0,0,0,95.1,144.583Zm0-1.859a11.716,11.716,0,0,1,8.347,3.513,11.993,11.993,0,0,1,3.475,8.446v18.025h22.022V100.541H61.256v72.167H83.27V154.683a11.989,11.989,0,0,1,3.475-8.446A11.733,11.733,0,0,1,95.1,142.724ZM73.75,109.644a.929.929,0,0,1,0-1.859h42.7a.929.929,0,0,1,0,1.859Zm0,4.668a.925.925,0,0,1,0-1.85h42.7a.925.925,0,0,1,0,1.85Zm0,4.676a.929.929,0,0,1,0-1.859h42.7a.929.929,0,0,1,0,1.859Zm0,4.669a.929.929,0,0,1,0-1.859h42.7a.929.929,0,0,1,0,1.859Zm0,4.676a.929.929,0,0,1,0-1.858h42.7a.929.929,0,0,1,0,1.858Zm0,4.668a.929.929,0,0,1,0-1.858h42.7a.929.929,0,0,1,0,1.858Zm0,4.669ZM53.641,98.682h89.941l-8.855-5.318H93.052a.925.925,0,0,1,0-1.851h38.582l-1.779-1.073a.488.488,0,0,1-.1-.068l-3.131-1.881L94.964,69.47h0L46.6,98.682h7.04Zm62.292-16.657Z" transform="translate(-46.601 -68.068)" fill="#28c7fa" fill-rule="evenodd"/></g></g></svg>