<svg xmlns="http://www.w3.org/2000/svg" width="91.099" height="72.83" viewBox="0 0 91.099 72.83"><g transform="translate(-2.3 -8.1)"><g transform="translate(2.3 8.1)"><path d="M90.769,9a6.249,6.249,0,0,0-7.36.767L60.1,31.077a17.143,17.143,0,0,1-4.446,2.913H55.5A23.589,23.589,0,0,0,48.3,39.05l-4.906,4.906a1.325,1.325,0,0,0-.92-.46A1.294,1.294,0,0,0,41.4,43.8L35.878,48.1a14.618,14.618,0,0,0-9.966-1.533c-3.68.92-8.893,3.833-12.266,13.493C11.04,67.722,2.913,73.242,2.913,73.4A1.394,1.394,0,0,0,2.3,74.622a1.564,1.564,0,0,0,.767,1.227L3.22,76a15.114,15.114,0,0,0,19.319-3.22l.153-.153a23.119,23.119,0,0,1-3.22,5.98,1.41,1.41,0,0,0-.153,1.533,1.61,1.61,0,0,0,1.38.767h0c2.453,0,10.733-.46,17.173-4.906S46,65.116,44.771,59.289h.153L50.444,55a1.649,1.649,0,0,0,.307-2.147l-.153-.307,5.826-5.98a19.916,19.916,0,0,1,5.06-3.527A24.823,24.823,0,0,0,67.77,38.9L91.689,16.971a5.282,5.282,0,0,0,1.687-4.446A5.16,5.16,0,0,0,90.769,9ZM36.032,74.009c-4.14,2.913-9.2,3.833-12.573,4.14,3.986-6.9,3.22-12.419,3.067-12.573a1.474,1.474,0,0,0-1.38-1.227h-.153a1.473,1.473,0,0,0-1.38.92A30.377,30.377,0,0,1,20.086,71.1,11.892,11.892,0,0,1,6.593,74.469c2.76-2.3,7.82-7.206,9.966-13.339,2.3-6.593,5.673-10.58,9.966-11.5,4.6-1.073,9.046,1.533,11.5,3.986l.92,1.227.92,1.227C43.238,61.129,43.391,68.949,36.032,74.009Zm8.126-17.633-1.687-2.3a12.092,12.092,0,0,0-1.84-2.3L38.945,49.63l3.067-2.453h0l2.147,2.607L46.3,52.39l.613.767.153.307h0l.153.153ZM89.543,15.131,65.624,37.057a21.686,21.686,0,0,1-5.52,3.68,20.817,20.817,0,0,0-5.98,4.14L48.6,50.55,46.611,48.1l-1.227-1.533,5.06-5.213A22.334,22.334,0,0,1,56.731,36.9h.153A20.788,20.788,0,0,0,62.1,33.377L85.4,11.911a3.3,3.3,0,0,1,3.68-.46,2.521,2.521,0,0,1,1.227,1.84A1.759,1.759,0,0,1,89.543,15.131Z" transform="translate(-2.3 -8.078)" fill="#28c7fa"/><path d="M27.033,14.386a1.449,1.449,0,0,0,1.533-1.533V9.633a1.533,1.533,0,0,0-3.067,0v3.22A1.649,1.649,0,0,0,27.033,14.386Z" transform="translate(10.072 -8.1)" fill="#28c7fa"/><path d="M27.033,13.3A1.449,1.449,0,0,0,25.5,14.833v3.22a1.533,1.533,0,1,0,3.067,0v-3.22A1.536,1.536,0,0,0,27.033,13.3Z" transform="translate(10.072 -5.327)" fill="#28c7fa"/><path d="M27.1,13.333a1.449,1.449,0,0,0,1.533,1.533h3.22a1.449,1.449,0,0,0,1.533-1.533A1.449,1.449,0,0,0,31.853,11.8h-3.22A1.449,1.449,0,0,0,27.1,13.333Z" transform="translate(10.925 -6.127)" fill="#28c7fa"/><path d="M23.333,14.867h3.22a1.449,1.449,0,0,0,1.533-1.533A1.449,1.449,0,0,0,26.553,11.8h-3.22A1.449,1.449,0,0,0,21.8,13.333,1.536,1.536,0,0,0,23.333,14.867Z" transform="translate(8.099 -6.127)" fill="#28c7fa"/><path d="M43.733,48.386a1.449,1.449,0,0,0,1.533-1.533v-3.22a1.533,1.533,0,1,0-3.067,0v3.22A1.649,1.649,0,0,0,43.733,48.386Z" transform="translate(18.977 10.031)" fill="#28c7fa"/><path d="M43.733,47.3A1.449,1.449,0,0,0,42.2,48.833v3.22a1.533,1.533,0,1,0,3.067,0v-3.22A1.536,1.536,0,0,0,43.733,47.3Z" transform="translate(18.977 12.804)" fill="#28c7fa"/><path d="M48.553,45.7h-3.22a1.533,1.533,0,1,0,0,3.067h3.22a1.449,1.449,0,0,0,1.533-1.533A1.536,1.536,0,0,0,48.553,45.7Z" transform="translate(19.83 11.951)" fill="#28c7fa"/><path d="M44.786,47.233A1.449,1.449,0,0,0,43.253,45.7h-3.22a1.533,1.533,0,0,0,0,3.067h3.22A1.449,1.449,0,0,0,44.786,47.233Z" transform="translate(17.004 11.951)" fill="#28c7fa"/><path d="M19.626,31.053A5.826,5.826,0,1,0,13.8,25.226,5.824,5.824,0,0,0,19.626,31.053Zm0-8.586a2.76,2.76,0,1,1-2.76,2.76A2.748,2.748,0,0,1,19.626,22.467Z" transform="translate(3.833 -2.074)" fill="#28c7fa"/><path d="M55.526,28.5a5.826,5.826,0,1,0,5.826,5.826A5.824,5.824,0,0,0,55.526,28.5Zm0,8.586a2.76,2.76,0,1,1,2.76-2.76A2.748,2.748,0,0,1,55.526,37.086Z" transform="translate(22.977 2.779)" fill="#28c7fa"/></g></g></svg>