<svg xmlns="http://www.w3.org/2000/svg" width="99.538" height="102.516" viewBox="0 0 99.538 102.516"><g transform="translate(-15 -14)"><rect width="84" height="90" transform="translate(17 16)" fill="#757575"/><path d="M75,37H15V14H75Zm28-23H76V37h27ZM75,62H15V85H75Zm28,0H76V85h27ZM43,61h60V38H43ZM15,61H42V38H15Zm28,48h60V86H43Zm-28,0H42V86H15Z" fill="#28c7fa"/><path d="M106.2,37.3,91.6,30.7l6.6-12.5a2.073,2.073,0,0,1,2.6-.9l9.3,4.2a1.872,1.872,0,0,1,1,2.5Z" fill="#263238"/><path d="M101.1,55.9c2.5,1.1,6.6-2.4,9.1-8s2.5-10.9,0-12.1l-.9-2L92.2,26.1l-2.1.7c-2.5-1.1-6.6,2.4-9.1,8-2.5,5.5-2.5,10.9,0,12.1Z" fill="#775ada"/><path d="M112,52.9h0a4.1,4.1,0,0,1-.9-4.6l-31-14a3.908,3.908,0,0,1-4,2.3h0a1.961,1.961,0,0,0-1.9,1.2L48.6,94.5a1.538,1.538,0,0,0,.3,1.7,3.074,3.074,0,0,1,.7,3.4l32.8,14.8a2.828,2.828,0,0,1,3-1.7,1.65,1.65,0,0,0,1.5-.9l25.6-56.6A2.133,2.133,0,0,0,112,52.9Z" fill="#263238"/><path d="M0,0H42V19.5H0Z" transform="matrix(0.911, 0.411, -0.411, 0.911, 56.596, 76.617)" fill="#775ada"/><rect width="42" height="3" transform="matrix(0.911, 0.411, -0.411, 0.911, 47.675, 96.503)" fill="#bdbdbd"/><path d="M113.3,48.2,78.7,32.6a1.9,1.9,0,0,0-2.6,1l-.4.9L114,51.8l.4-.9A2.186,2.186,0,0,0,113.3,48.2Z" fill="#bdbdbd"/><path d="M110.1,32.5,92.7,24.6a1.471,1.471,0,0,0-1.9.7l-.6,1.4,20.1,9.1.6-1.4A1.623,1.623,0,0,0,110.1,32.5Z" fill="#bdbdbd"/><ellipse cx="3" cy="2.5" rx="3" ry="2.5" transform="matrix(0.411, -0.911, 0.911, 0.411, 97.632, 24.726)" fill="#28c7fa"/></g></svg>