<svg xmlns="http://www.w3.org/2000/svg" viewBox="0 0 91.099 72.83" fill="#28c7fa" xmlns:v="https://vecta.io/nano"><path d="M88.47.922a6.25 6.25 0 0 0-7.36.767L57.8 23a17.14 17.14 0 0 1-4.446 2.913H53.2a23.59 23.59 0 0 0-7.2 5.06l-4.906 4.906a1.33 1.33 0 0 0-.92-.46c-.386-.066-.78.046-1.074.304l-5.522 4.3a14.62 14.62 0 0 0-9.966-1.533c-3.68.92-8.893 3.833-12.266 13.493C8.74 59.644.613 65.164.613 65.322c-.404.272-.636.736-.613 1.222a1.58 1.58 0 0 0 .767 1.227l.153.15c6.358 3.8 14.54 2.445 19.32-3.22l.153-.153a23.12 23.12 0 0 1-3.22 5.98 1.41 1.41 0 0 0-.153 1.533 1.61 1.61 0 0 0 1.38.767h0c2.453 0 10.733-.46 17.173-4.906s8.128-10.885 6.9-16.712h.153l5.52-4.3a1.65 1.65 0 0 0 .307-2.147l-.153-.307 5.826-5.98a19.97 19.97 0 0 1 5.06-3.527c2.294-1.052 4.413-2.448 6.286-4.14l23.92-21.93a5.28 5.28 0 0 0 1.687-4.446 5.16 5.16 0 0 0-2.61-3.521zM33.732 65.93c-4.14 2.913-9.2 3.833-12.573 4.14 3.986-6.9 3.22-12.42 3.067-12.573-.115-.682-.7-1.193-1.38-1.227h-.153c-.605-.006-1.153.36-1.38.92-.953 2.07-2.136 4.026-3.527 5.83a11.91 11.91 0 0 1-13.493 3.37c2.76-2.3 7.82-7.206 9.966-13.34 2.3-6.593 5.673-10.58 9.966-11.5 4.6-1.073 9.046 1.533 11.5 3.986L37.565 48c3.373 5.06 3.526 12.88-3.833 17.94zm8.126-17.633l-1.687-2.3a12.09 12.09 0 0 0-1.84-2.3l-1.686-2.146 3.067-2.453L44 44.312l.613.767.153.307.153.153zM87.243 7.053L63.324 28.98c-1.64 1.503-3.502 2.744-5.52 3.68-2.22 1.018-4.245 2.42-5.98 4.14L46.3 42.472l-2-2.45-1.227-1.533 5.06-5.213c1.822-1.838 3.95-3.345 6.287-4.454h.153a20.79 20.79 0 0 0 5.216-3.523L83.1 3.833a3.3 3.3 0 0 1 3.68-.46 2.52 2.52 0 0 1 1.227 1.84 1.76 1.76 0 0 1-.764 1.84zm-50.138-.767a1.45 1.45 0 0 0 1.533-1.533v-3.22C38.638.686 37.95 0 37.105 0S35.57.686 35.57 1.533v3.22a1.65 1.65 0 0 0 1.534 1.533zm0 1.687a1.45 1.45 0 0 0-1.533 1.533v3.22c0 .847.687 1.534 1.533 1.534s1.533-.687 1.533-1.533v-3.22c-.002-.846-.688-1.532-1.534-1.533zm.92-.767a1.45 1.45 0 0 0 1.533 1.533h3.22a1.45 1.45 0 0 0 1.533-1.533 1.45 1.45 0 0 0-1.533-1.533h-3.22a1.45 1.45 0 0 0-1.533 1.533z"/><path d="M31.432 8.74h3.22a1.45 1.45 0 0 0 1.533-1.533 1.45 1.45 0 0 0-1.533-1.534h-3.22a1.45 1.45 0 0 0-1.533 1.533c.001.846.687 1.532 1.533 1.534zM62.7 58.417a1.45 1.45 0 0 0 1.533-1.533v-3.22c0-.847-.687-1.533-1.533-1.533s-1.534.687-1.534 1.533v3.22a1.65 1.65 0 0 0 1.534 1.533zm0 1.687a1.45 1.45 0 0 0-1.533 1.533v3.22c0 .847.687 1.534 1.534 1.534s1.534-.687 1.534-1.534v-3.22c-.002-.846-.688-1.532-1.534-1.533zm5.683-2.454h-3.22c-.847 0-1.533.687-1.534 1.534s.687 1.533 1.534 1.534h3.22a1.45 1.45 0 0 0 1.533-1.533c-.001-.846-.687-1.532-1.533-1.534z"/><path d="M61.8 59.184a1.45 1.45 0 0 0-1.533-1.533h-3.22c-.847 0-1.534.687-1.534 1.534s.687 1.533 1.534 1.534h3.22a1.45 1.45 0 0 0 1.533-1.534zM23.46 28.98a5.83 5.83 0 0 0 5.826-5.826 5.83 5.83 0 0 0-5.825-5.826 5.83 5.83 0 0 0-5.827 5.825c-.001 1.545.613 3.028 1.705 4.12s2.575 1.707 4.12 1.706zm0-8.586a2.76 2.76 0 1 1-2.76 2.76 2.75 2.75 0 0 1 2.76-2.76zM78.503 31.28a5.83 5.83 0 0 0-5.826 5.826 5.83 5.83 0 0 0 5.826 5.826 5.83 5.83 0 0 0 5.826-5.826 5.82 5.82 0 0 0-1.706-4.12c-1.093-1.093-2.575-1.706-4.12-1.706zm0 8.586a2.76 2.76 0 1 1 2.76-2.76 2.75 2.75 0 0 1-2.76 2.76z"/></svg>