<svg xmlns="http://www.w3.org/2000/svg" width="120.787" height="68.24" viewBox="0 0 120.787 68.24"><g transform="translate(-4.213 -30.76)"><path d="M10,91V89.08C10,60,32,35.32,61,33a55.56,55.56,0,0,1,60,55.32V91" fill="#28c7fa"/><path d="M51.63,80H78.46L90.59,38.75a55.26,55.26,0,0,0-51.09,0Z" fill="#393c54" opacity="0.2"/><path d="M65,30.76a122.754,122.754,0,0,0-13.8.779A2,2,0,0,0,49.35,33.31L51.63,89H78.46L80.7,33.31a2,2,0,0,0-1.84-1.77A122.787,122.787,0,0,0,65,30.76Z" fill="#775ada"/><path d="M85.7,99H42.61a78.667,78.667,0,0,1-38.4-10L124.08,89A78.66,78.66,0,0,1,85.7,99Z" fill="#28c7fa"/><rect width="120" height="7" rx="1.77" transform="translate(5 84)" fill="#775ada"/></g></svg>