<svg xmlns="http://www.w3.org/2000/svg" width="93.98" height="178.815" viewBox="0 0 93.98 178.815"><g transform="translate(-19.245 -7.625)"><g transform="translate(19.245 7.625)"><path d="M111.663,54.652,94.729,10.11A9.76,9.76,0,0,0,92.889,7.9a4.033,4.033,0,0,0-2.945,0L66.016,17.1c-.368,0-.736.368-1.1.736A27.969,27.969,0,0,0,50.923,36.615L29.2,44.713a14.677,14.677,0,0,0-8.467,19.142,14.527,14.527,0,0,0,11.78,9.2v32.395h29.45V64.592a27.524,27.524,0,0,0,22.087,4.417,2.213,2.213,0,0,0,1.472-.368l23.928-9.2C111.663,58.7,112.4,56.861,111.663,54.652ZM100.987,47.29l-17.3,6.626L82.213,50.6l17.3-6.626ZM98.41,40.3l-17.3,6.626-1.472-3.681,17.3-6.626ZM94.361,29.988,95.834,33.3l-17.3,6.626L77.06,36.615Zm-2.577-6.994,1.472,3.313-17.3,6.626L74.483,29.62Zm-2.577-6.626,1.472,3.313-17.3,6.626-1.472-3.313ZM86.263,60.542,84.79,57.229l17.3-6.626,1.472,3.313Z" transform="translate(-17.959 -7.625)" fill="#28c7fa"/><path d="M33.8,50.829a3.915,3.915,0,0,0,3.313,3.681v.736c0,9.939,0,33.5-16.934,51.905-1.472,1.472-1.1,3.681.368,5.154a2.812,2.812,0,0,0,1.841.736H41.534a3.348,3.348,0,0,0,2.945-1.472C59.94,89.482,59.572,66.29,59.2,55.983V54.142h.736a3.478,3.478,0,0,0,3.681-3.681V35H34.171V50.829Z" transform="translate(-19.245 65.773)" fill="#28c7fa"/></g></g></svg>