<svg xmlns="http://www.w3.org/2000/svg" width="102" height="76.125" viewBox="0 0 102 76.125"><g transform="translate(-8 -40)"><path d="M101.571,60.617h4.758a4.734,4.734,0,0,1,1.3.182A24.582,24.582,0,0,0,83.332,40H80.161A24.582,24.582,0,0,0,55.578,64.582V91.543A16.652,16.652,0,0,1,38.926,108.2H32.582A16.652,16.652,0,0,1,15.93,91.543V40H8V91.543a24.582,24.582,0,0,0,24.582,24.582h6.344A24.582,24.582,0,0,0,63.508,91.543V64.582A16.652,16.652,0,0,1,80.161,47.93h3.172a16.676,16.676,0,0,1,16.256,13.12A4.722,4.722,0,0,1,101.571,60.617Z" transform="translate(0 0)" fill="#28c7fa"/><path d="M246.344,143.578h-4.758A4.726,4.726,0,0,1,240,143.3v3.449h7.93V143.3A4.726,4.726,0,0,1,246.344,143.578Z" transform="translate(-140.015 -62.343)" fill="#28c7fa"/><rect width="12" height="18" rx="6" transform="translate(98 62.125)" fill="#28c7fa"/><path d="M242,164.758a3.172,3.172,0,0,0,6.344,0c0-2.189-3.172-4.758-3.172-4.758S242,162.569,242,164.758Z" transform="translate(-141.222 -72.422)" fill="#28c7fa"/></g></svg>