<svg xmlns="http://www.w3.org/2000/svg" width="85.903" height="96.952" viewBox="0 0 85.903 96.952"><g transform="translate(-77.483 -54.522)"><g transform="translate(77.483 54.522)"><path d="M112.24,139.292V123.415a27.481,27.481,0,0,1-9.323-5.441l-4.9,4.9a1.127,1.127,0,0,1-1.594-1.594l4.865-4.865A27.149,27.149,0,0,1,93.77,98.489H86.988a1.127,1.127,0,0,1,0-2.255h6.8a27.214,27.214,0,0,1,8.556-18.5l-4.9-5.325A1.127,1.127,0,1,1,99.1,70.882l4.945,5.374a27.149,27.149,0,0,1,16.762-5.948V62.414a1.127,1.127,0,1,1,2.255,0v7.967a27.193,27.193,0,0,1,16.788,7.47l6-6a1.127,1.127,0,1,1,1.594,1.594l-6.028,6.028a27.171,27.171,0,0,1,6.865,16.759h8.6a1.127,1.127,0,0,1,0,2.255H148.3a27.088,27.088,0,0,1-7.411,17.8l5.543,6.024a1.127,1.127,0,1,1-1.659,1.526l-5.5-5.975a27.484,27.484,0,0,1-9.445,5.549v15.878c19.938-4.137,34.271-21.094,34.271-40.8,0-23.832-19.721-43.966-43.064-43.966-23.5,0-42.613,19.319-42.613,43.064A42.529,42.529,0,0,0,112.24,139.292Z" transform="translate(-78.195 -54.522)" fill="#28c7fa"/><path d="M160.049,173.343a25.021,25.021,0,0,0,7.8,4.641v0c0-.014,0-.028.006-.043.014-.129.03-.256.049-.384.007-.048.017-.1.025-.143.015-.093.031-.186.05-.277.011-.055.025-.109.037-.164.019-.083.037-.166.058-.249.015-.058.031-.115.047-.172.021-.078.043-.156.066-.234.018-.058.037-.116.056-.173.025-.075.05-.15.076-.225.021-.058.043-.115.064-.172.028-.073.056-.145.086-.217s.048-.113.073-.169.063-.141.1-.212l.08-.165c.034-.069.07-.138.106-.206s.057-.107.087-.16.077-.135.116-.2.061-.1.093-.155.083-.132.126-.2c.032-.05.065-.1.1-.148.045-.065.091-.129.138-.193.034-.047.068-.094.1-.14.049-.065.1-.128.151-.192.035-.044.069-.087.1-.13.055-.065.111-.13.168-.194.034-.038.067-.077.1-.115.065-.071.133-.141.2-.211.028-.028.054-.057.083-.085q.291-.291.608-.552c.033-.027.067-.053.1-.08.073-.059.147-.118.222-.174.042-.032.085-.061.127-.092.069-.05.137-.1.207-.147.047-.032.095-.062.142-.093.067-.044.135-.088.2-.131.05-.031.1-.06.152-.09.068-.04.135-.079.2-.117.053-.029.106-.057.16-.085s.137-.072.207-.106l.166-.079q.1-.049.21-.1c.057-.025.114-.049.172-.072s.143-.058.215-.085l.176-.065c.073-.026.146-.051.219-.075l.179-.057c.075-.022.15-.044.225-.064s.121-.033.181-.048c.077-.019.154-.036.232-.054.06-.014.12-.027.181-.039.08-.016.161-.03.242-.044.059-.01.118-.021.178-.03.085-.013.171-.023.257-.033.057-.007.113-.015.17-.02.1-.009.192-.016.289-.022l.145-.01c.145-.007.291-.011.438-.011s.293,0,.438.011l.144.01c.1.006.193.013.288.022.057.006.113.014.17.02.086.01.172.02.257.033.06.009.119.02.178.03.081.014.162.027.243.044.061.012.121.026.181.039.077.017.155.034.232.054.061.015.121.032.181.048s.151.042.225.064.12.038.179.057.147.048.219.075l.176.065q.108.041.214.085c.058.024.115.047.172.072s.141.063.21.1l.167.079c.069.034.138.07.206.106s.108.056.16.086c.068.038.135.077.2.117l.154.091c.068.042.135.086.2.129l.143.094c.069.047.136.1.2.145.044.031.087.062.13.094.074.056.146.114.218.172.034.027.07.054.1.083q.156.128.3.264l.005,0q.152.138.3.283c.03.03.058.061.088.091.066.068.132.135.2.2.035.039.07.079.1.119.055.063.111.126.165.19.036.044.071.089.107.134.05.062.1.124.147.188.036.047.07.1.1.143s.091.126.135.19.067.1.1.151.084.128.124.193.064.105.1.158.077.131.114.2.06.108.089.163.07.135.1.2l.081.168c.032.069.064.139.094.209s.05.115.074.172.057.142.084.214.045.116.066.175.051.147.075.221c.019.059.039.117.057.176.023.076.045.154.065.23.016.058.033.116.047.175.021.081.039.164.057.246.012.055.025.111.037.166.019.091.034.184.05.276.008.048.017.1.025.145.019.127.035.255.049.384,0,.014,0,.028.005.043v0a25.015,25.015,0,0,0,7.989-4.808l-6.741-7.326a1.127,1.127,0,0,1,1.659-1.527l6.693,7.273A24.918,24.918,0,0,0,201.6,155.43h-9.452a1.127,1.127,0,1,1,0-2.255h9.433a24.923,24.923,0,0,0-6.2-15.163l-6.724,6.725a1.127,1.127,0,0,1-1.594-1.594l6.756-6.756a24.947,24.947,0,0,0-15.194-6.8v10.063a1.127,1.127,0,1,1-2.255,0V129.5a24.9,24.9,0,0,0-15.233,5.355l7.266,7.9a1.127,1.127,0,1,1-1.659,1.527l-7.314-7.948a24.965,24.965,0,0,0-7.824,16.842H162.84a1.127,1.127,0,1,1,0,2.255H151.584a24.916,24.916,0,0,0,6.835,16.355l7.916-7.916a1.127,1.127,0,1,1,1.594,1.594Z" transform="translate(-133.755 -111.463)" fill="#28c7fa"/><path d="M162.033,341.36H126.86V314.079a6.539,6.539,0,1,0-13.077,0V341.36H78.61a1.127,1.127,0,1,0,0,2.255h83.423a1.128,1.128,0,0,0,0-2.255Z" transform="translate(-77.483 -246.663)" fill="#28c7fa"/></g></g></svg>