<svg xmlns="http://www.w3.org/2000/svg" width="95.548" height="95.554" viewBox="0 0 95.548 95.554"><g transform="translate(-17.38 -17.38)"><g transform="translate(17.38 17.38)"><g transform="translate(0)"><g transform="translate(7.533 29.476)"><path d="M75.487,176.935a1.4,1.4,0,0,1-.991-.41l-5.362-5.362H58.608a1.4,1.4,0,0,1-.991-.41l-2.2-2.2a1.4,1.4,0,1,1,1.982-1.982l1.794,1.794H69.714a1.4,1.4,0,0,1,.991.41l4.781,4.781,6.892-6.892a4.11,4.11,0,0,1,2.925-1.211H89.31l.44-.443a1.4,1.4,0,0,1,1.984,1.98l-.851.853a1.4,1.4,0,0,1-.993.412H85.3a1.32,1.32,0,0,0-.943.39l-7.883,7.883A1.4,1.4,0,0,1,75.487,176.935Z" transform="translate(-55.003 -164.594)" fill="#28c7fa"/></g><path d="M19.8,44.706a1.4,1.4,0,0,1-.991-.41l-1.017-1.017a1.4,1.4,0,0,1-.41-.991l0-13.769a1.4,1.4,0,0,1,.414-1l.218-.216a1.4,1.4,0,0,1,1.978,0L32.727,40.047l7.318-7.32L27.309,19.991a1.4,1.4,0,0,1,0-1.982l.218-.218a1.4,1.4,0,0,1,.991-.41h0l13.767,0a1.4,1.4,0,0,1,.991.41l9.733,9.735a1.4,1.4,0,0,1,.41.991V39.044l2.739,2.737a1.4,1.4,0,1,1-1.982,1.982l-3.15-3.15a1.4,1.4,0,0,1-.41-.991V29.1l-8.912-8.912-10.239,0L43.019,31.738a1.4,1.4,0,0,1,0,1.982l-9.3,9.3a1.4,1.4,0,0,1-1.982,0L20.183,31.47l0,10.239.607.607a1.4,1.4,0,0,1-.991,2.391Z" transform="translate(-17.38 -17.38)" fill="#28c7fa"/><g transform="translate(4.165 27.669)"><path d="M39.582,158.373a1.4,1.4,0,0,1-1.4-1.4,1.434,1.434,0,0,1,.236-.779,1.489,1.489,0,0,1,.174-.212,1.4,1.4,0,0,1,1.982,0,1.26,1.26,0,0,1,.174.212,1.35,1.35,0,0,1,.208.5,1.393,1.393,0,0,1-.382,1.265,1.49,1.49,0,0,1-.212.174,1.4,1.4,0,0,1-.242.128,1.324,1.324,0,0,1-.262.08A1.4,1.4,0,0,1,39.582,158.373Z" transform="translate(-38.18 -155.57)" fill="#28c7fa"/></g><g transform="translate(52.787 52.955)"><path d="M312.651,324.459h0l-13.767,0a1.4,1.4,0,0,1-.991-.41l-9.735-9.735a1.4,1.4,0,0,1-.41-.991V302.795l-1.229-1.229a1.4,1.4,0,0,1,1.982-1.982l1.64,1.64a1.4,1.4,0,0,1,.41.991V312.74l8.914,8.912,10.237,0L298.148,310.1a1.4,1.4,0,0,1,0-1.982l9.3-9.3a1.4,1.4,0,0,1,1.982,0l11.551,11.553,0-10.239-8.912-8.912H301.544a1.4,1.4,0,0,1-.991-.41l-5.568-5.568-9.132,9.13a23.835,23.835,0,0,1-2.591,2.245,1.4,1.4,0,0,1-1.678-2.247,21.042,21.042,0,0,0,2.285-1.98L293.956,282.3a.388.388,0,0,1,.03-.028l.034-.032a1.4,1.4,0,0,1,1.952.028l6.149,6.149h10.526a1.4,1.4,0,0,1,.991.41l9.733,9.733a1.4,1.4,0,0,1,.41.991l0,13.767a1.4,1.4,0,0,1-.41.991l-.218.218a1.4,1.4,0,0,1-.991.41h0a1.4,1.4,0,0,1-.991-.41l-12.736-12.736-7.32,7.318,12.738,12.738a1.4,1.4,0,0,1-.006,1.988l-.218.216A1.374,1.374,0,0,1,312.651,324.459Z" transform="translate(-281.022 -281.859)" fill="#28c7fa"/></g><g transform="translate(39.314 37.813)"><path d="M215.132,240.891a1.4,1.4,0,0,1,0-2.8,21.108,21.108,0,0,0,14.923-6.183l10.087-10.087a.382.382,0,0,1,.03-.028l.02-.018,1.235-1.235a5.83,5.83,0,0,0,0-8.245l-3.666-3.666a1.4,1.4,0,1,1,1.982-1.982l3.666,3.666a8.633,8.633,0,0,1,0,12.21l-1.249,1.249-.03.028-.02.018-10.073,10.073a23.9,23.9,0,0,1-16.9,7Z" transform="translate(-213.73 -206.232)" fill="#28c7fa"/></g><g transform="translate(59.494 34.371)"><path d="M315.922,191.847a1.417,1.417,0,0,1-.991-.41,1.4,1.4,0,0,1-.174-.214,1.384,1.384,0,0,1-.128-.24,1.4,1.4,0,0,1,1.568-1.91,1.324,1.324,0,0,1,.262.08,1.4,1.4,0,0,1,.242.128,1.366,1.366,0,0,1,.212.174,1.412,1.412,0,0,1,.384,1.265,1.582,1.582,0,0,1-.08.262,1.394,1.394,0,0,1-.13.24,1.2,1.2,0,0,1-.174.214,1.491,1.491,0,0,1-.212.174,1.4,1.4,0,0,1-.242.128,1.324,1.324,0,0,1-.262.08A1.4,1.4,0,0,1,315.922,191.847Z" transform="translate(-314.52 -189.045)" fill="#28c7fa"/></g><g transform="translate(18.717 26.111)"><path d="M127.909,199.1a1.4,1.4,0,0,1-.991-.41l-15.645-15.645a1.4,1.4,0,0,1,0-1.982l5.406-5.406V165.309a4.165,4.165,0,0,1,1.213-2.925l9.164-9.164a4.11,4.11,0,0,1,2.925-1.211h4.006l1.692-1.694c.1-.1.246-.238.4-.372a8.639,8.639,0,0,1,11.809.372l3.043,3.043a1.4,1.4,0,1,1-1.982,1.982l-3.043-3.043a5.832,5.832,0,0,0-7.979-.246l-.018.016c-.072.06-.154.138-.258.24l-2.09,2.092a1.4,1.4,0,0,1-.993.412h-4.587a1.32,1.32,0,0,0-.943.39l-9.164,9.164a1.337,1.337,0,0,0-.392.943v10.926a1.4,1.4,0,0,1-.41.991l-4.825,4.825L128.9,196.706a1.4,1.4,0,0,1-.991,2.393Z" transform="translate(-110.863 -147.79)" fill="#28c7fa"/></g><g transform="translate(8.908 55.444)"><path d="M85.524,325.629a1.4,1.4,0,0,1-.991-.41L62.282,302.968a1.4,1.4,0,0,1,0-1.982l6.283-6.283a1.4,1.4,0,0,1,1.982,0L92.8,316.953a1.4,1.4,0,0,1,0,1.982l-6.283,6.283A1.4,1.4,0,0,1,85.524,325.629ZM65.256,301.977l20.269,20.269,4.3-4.3L69.555,297.676Z" transform="translate(-61.872 -294.292)" fill="#28c7fa"/></g></g></g></g></svg>