<svg xmlns="http://www.w3.org/2000/svg" width="135.8" height="135.8" xmlns:v="https://vecta.io/nano"><path d="M135.8 107.25c-.076 2.295-.4 4.575-.965 6.8-.475 2.26-1.152 4.47-2.025 6.607q-2.025 4.822-11.767 10.224c-6.934 4.07-15.036 5.683-23 4.58a41.68 41.68 0 0 1-5.546-1.206q-3.086-.868-4.58-1.4-1.495-.532-5.353-1.977-3.858-1.447-4.726-1.736c-5.896-2.057-11.555-4.74-16.88-8.005a143.08 143.08 0 0 1-25.511-20.785c-7.886-7.676-14.86-16.236-20.785-25.51-3.264-5.324-5.948-10.983-8.005-16.88q-.29-.868-1.736-4.726-1.447-3.858-1.977-5.353-.53-1.495-1.4-4.58a41.69 41.69 0 0 1-1.206-5.546c-1.102-7.964.512-16.066 4.58-23q5.4-9.74 10.224-11.767A38.32 38.32 0 0 1 21.75.966c2.225-.566 4.505-.89 6.8-.964a5.4 5.4 0 0 1 2.025.289q1.736.58 5.112 7.33 1.06 1.833 2.893 5.208 1.832 3.375 3.376 6.124 1.543 2.75 3 5.16.29.386 1.688 2.41c.775 1.088 1.47 2.233 2.074 3.424a6.29 6.29 0 0 1 .675 2.749q0 1.93-2.75 4.822c-1.84 1.933-3.84 3.706-5.98 5.3a58.08 58.08 0 0 0-5.98 5.112q-2.75 2.7-2.75 4.437c.035.746.198 1.48.482 2.17.24.672.513 1.332.82 1.977q.338.675 1.35 2.315 1.012 1.64 1.11 1.833a95.59 95.59 0 0 0 39.448 39.448q.193.1 1.833 1.11 1.64 1.01 2.315 1.35a21.07 21.07 0 0 0 1.977.82c.7.284 1.424.447 2.17.482q1.736 0 4.437-2.75c1.837-1.876 3.545-3.873 5.112-5.98 1.594-2.14 3.367-4.14 5.3-5.98q2.893-2.75 4.822-2.75a6.29 6.29 0 0 1 2.749.675c1.19.605 2.336 1.3 3.424 2.074q2.025 1.4 2.41 1.688 2.41 1.447 5.16 3 2.75 1.543 6.125 3.376 3.376 1.832 5.208 2.893 6.75 3.376 7.33 5.112a5.4 5.4 0 0 1 .293 2.029z" fill="#775ada"/></svg>