<svg xmlns="http://www.w3.org/2000/svg" width="103.536" height="98.327" viewBox="0 0 103.536 98.327"><g transform="translate(-15.654 -29.881)"><path d="M18,326.5l7.443,9.336a6.282,6.282,0,0,0,9.825,0l2.531-3.175a6.283,6.283,0,0,1,9.825,0l2.531,3.175a6.283,6.283,0,0,0,9.825,0l2.531-3.175a6.283,6.283,0,0,1,9.825,0l2.531,3.175a6.283,6.283,0,0,0,9.825,0l2.531-3.175a6.283,6.283,0,0,1,9.825,0l2.531,3.175a6.283,6.283,0,0,0,9.825,0l7.443-9.336" transform="translate(0 -232.261)" fill="none" stroke="#28c7fa" stroke-width="6"/><path d="M18,418.7l7.443,9.336a6.282,6.282,0,0,0,9.825,0l2.531-3.174a6.283,6.283,0,0,1,9.825,0l2.531,3.174a6.283,6.283,0,0,0,9.825,0l2.531-3.174a6.283,6.283,0,0,1,9.825,0l2.531,3.174a6.283,6.283,0,0,0,9.825,0l2.531-3.174a6.283,6.283,0,0,1,9.825,0l2.531,3.174a6.283,6.283,0,0,0,9.825,0l7.443-9.336" transform="translate(0 -305.19)" fill="none" stroke="#28c7fa" stroke-width="6"/><path d="M129.947,32.881h-7.958a6.283,6.283,0,0,0-6.283,6.283v61.778" transform="translate(-77.288)" fill="none" stroke="#28c7fa" stroke-linejoin="round" stroke-width="6"/><path d="M184.133,32.881h-7.958a6.283,6.283,0,0,0-6.282,6.283V52.043m0,48.9V85.393m0-33.35H119.214m50.679,0v17.8m0,0H119.214m50.679,0V85.393m0,0H119.214" transform="translate(-80.063)" fill="none" stroke="#28c7fa" stroke-width="6"/></g></svg>