<svg xmlns="http://www.w3.org/2000/svg" width="91.229" height="72.371" viewBox="0 0 91.229 72.371"><g transform="translate(-5 -30.5)"><path d="M26.552,106.3H6.818a1.818,1.818,0,0,0,0,3.635H26.552a1.818,1.818,0,0,0,0-3.635Z" transform="translate(0 -47.682)" fill="#28c7fa"/><path d="M44.606,135.2H35.518a1.818,1.818,0,0,0,0,3.635h9.088a1.818,1.818,0,0,0,0-3.635Z" transform="translate(-18.054 -65.862)" fill="#28c7fa"/><path d="M34.6,164.1H19.618a1.818,1.818,0,1,0,0,3.635H34.6a1.818,1.818,0,1,0,0-3.635Z" transform="translate(-8.052 -84.042)" fill="#28c7fa"/><path d="M140.35,57.727a31.289,31.289,0,0,0-5.861-8.495,29.362,29.362,0,0,0-3.784-3.339l2.374-3.153a1.829,1.829,0,0,0-2.93-2.189l-2.522,3.339a31.027,31.027,0,0,0-5.267-2.485,36.7,36.7,0,0,0-4.9-1.335,32.688,32.688,0,0,0-3.264-.408V34.135h3.672a1.818,1.818,0,0,0,0-3.635H106.854a1.818,1.818,0,1,0,0,3.635h3.672v5.379a31.651,31.651,0,0,0-20.81,8.754,31.716,31.716,0,0,0-7.9,12.093,32.166,32.166,0,0,0-1.372,5.008,34.284,34.284,0,0,0-.556,5.119,31.762,31.762,0,0,0,21,30.529,36.7,36.7,0,0,0,4.9,1.335,32.76,32.76,0,0,0,5.045.519h.816a31.792,31.792,0,0,0,21.812-8.717,31.731,31.731,0,0,0,7.975-12.167,28.93,28.93,0,0,0,1.335-4.971,30.439,30.439,0,0,0,.556-5.156A30.953,30.953,0,0,0,140.35,57.727ZM139.2,76.312h0a29.783,29.783,0,0,1-1.187,4.414,28.135,28.135,0,0,1-7.048,10.757,27.282,27.282,0,0,1-7.493,5.082,27.64,27.64,0,0,1-12.5,2.6,25.933,25.933,0,0,1-4.451-.482,28.744,28.744,0,0,1-4.34-1.15,28.042,28.042,0,0,1-18.547-27A26.388,26.388,0,0,1,84.115,66,33.519,33.519,0,0,1,85.3,61.585,27.982,27.982,0,0,1,99.843,45.746a28.176,28.176,0,0,1,11.8-2.6h.7a25.933,25.933,0,0,1,4.451.482,25.041,25.041,0,0,1,4.34,1.187,27.74,27.74,0,0,1,10.72,6.937,29.319,29.319,0,0,1,5.193,7.53,27.963,27.963,0,0,1,2.634,12.5A26.788,26.788,0,0,1,139.2,76.312Z" transform="translate(-47.103 0)" fill="#28c7fa"/><path d="M165.71,105.118l-7.827,7.085a8.006,8.006,0,0,0-1.261-.631,4.981,4.981,0,0,0-1-.26,5.218,5.218,0,0,0-1.039-.111,6.389,6.389,0,0,0-2.968.631,5.869,5.869,0,0,0-1.781,1.224,6.312,6.312,0,0,0-1.632,2.522,8.488,8.488,0,0,0-.3,1.039,5.3,5.3,0,0,0-.111,1.076,6.293,6.293,0,0,0,.631,2.968,5.707,5.707,0,0,0,1.224,1.743,6.578,6.578,0,0,0,2.522,1.632,7.081,7.081,0,0,0,2.04.371h.185a6.5,6.5,0,0,0,2.782-.631,6.532,6.532,0,0,0,3.45-3.709,8.485,8.485,0,0,0,.3-1.039,5.3,5.3,0,0,0,.111-1.076,6.389,6.389,0,0,0-.631-2.968c0-.037-.037-.037-.037-.074l7.864-7.085a1.862,1.862,0,0,0,.148-2.6A1.992,1.992,0,0,0,165.71,105.118Zm-8.42,13.243h0c-.037.148-.074.334-.111.482a2.8,2.8,0,0,1-.742,1.113,2.209,2.209,0,0,1-.779.519,3.125,3.125,0,0,1-1.3.26c-.148,0-.334-.037-.482-.037l-.445-.111a2.8,2.8,0,0,1-1.113-.742,2.971,2.971,0,0,1-.556-.779,3.162,3.162,0,0,1-.3-1.3c0-.148.037-.334.037-.482.037-.148.074-.334.111-.482a2.8,2.8,0,0,1,.742-1.113,2.971,2.971,0,0,1,.779-.556,2.909,2.909,0,0,1,1.224-.26h.074c.148,0,.3.037.482.037l.445.111a2.564,2.564,0,0,1,1.113.742,3.742,3.742,0,0,1,.556.779,2.633,2.633,0,0,1,.26,1.3A2.424,2.424,0,0,1,157.289,118.36Z" transform="translate(-89.822 -46.648)" fill="#28c7fa"/></g></svg>