<svg xmlns="http://www.w3.org/2000/svg" width="63.828" height="63.812" viewBox="0 0 63.828 63.812"><g transform="translate(0 0)"><path d="M63.812,44.673,58.079,15.758h0L55.087.8a1,1,0,0,0-1-.8H9.721a1,1,0,1,0,0,1.994H53.273l2.592,12.962H33.651A35.751,35.751,0,0,0,9.906,23.62,28.249,28.249,0,0,0,0,44.867a1,1,0,0,0,1,1H62.815a1.02,1.02,0,0,0,1-1.191Zm-61.817-.8C2.612,28.914,16.576,16.95,33.651,16.95H56.264L61.6,43.87Z" transform="translate(0 0)" fill="#28c7fa"/><path d="M62.5,96a1,1,0,0,0-1,1v13.959a1,1,0,0,0,1.994,0V97A1,1,0,0,0,62.5,96Z" transform="translate(-30.841 -48.142)" fill="#28c7fa"/><path d="M26.5,96a1,1,0,0,0-1,1v13.959a1,1,0,0,0,1.994,0V97A1,1,0,0,0,26.5,96Z" transform="translate(-12.788 -48.142)" fill="#28c7fa"/><path d="M98.5,96a1,1,0,0,0-1,1v13.959a1,1,0,1,0,1.994,0V97A1,1,0,0,0,98.5,96Z" transform="translate(-48.894 -48.142)" fill="#28c7fa"/></g></svg>