<svg xmlns="http://www.w3.org/2000/svg" width="85.15" height="63.057" viewBox="0 0 85.15 63.057"><g transform="translate(-21.475 -32.475)"><path d="M55.5,66.5,86.1,36a12.021,12.021,0,0,1,17,17Q83.45,72.5,64,92a11.923,11.923,0,0,1-16.3.6c-.2-.2-.5-.3-.7-.6L25,69.8a12.021,12.021,0,0,1,17-17L55.5,66.5Zm0,5.7L39.1,55.7A7.99,7.99,0,0,0,27.8,67l22,22.2v-.1h0a8.028,8.028,0,0,0,11.3,0c29.9-29.7,9.3-9.1,39.1-39A7.99,7.99,0,0,0,88.9,38.8Z" fill="#775ada" fill-rule="evenodd"/><path d="M55.5,72.2,88.9,38.8a7.99,7.99,0,1,1,11.3,11.3C70.4,80,91,59.4,61.1,89.2a8.028,8.028,0,0,1-11.3,0h0v.1l-22-22.2A7.99,7.99,0,0,1,39.1,55.8Z" fill="#28c7fa" fill-rule="evenodd"/></g></svg>