<svg xmlns="http://www.w3.org/2000/svg" viewBox="0 0 108.721 108.833"><g transform="translate(-46.269 -46)"><g transform="translate(46.269 46)"><path d="M66.551,246.066a9.3,9.3,0,0,0-13.1-1.269l-7.184,5.915L67.724,276.77l14.368-11.829Z" transform="translate(-46.269 -191.712)" fill="#28c7fa"/><path d="M192.3,49.709C186.078,47.317,177.784,46,168.941,46s-17.137,1.317-23.355,3.709c-5.743,2.209-9.036,5.107-9.036,7.952s3.293,5.744,9.036,7.952C151.8,68,160.1,69.321,168.941,69.321S186.078,68,192.3,65.613c5.742-2.209,9.036-5.107,9.036-7.952S198.038,51.917,192.3,49.709Zm-23.355,14.43c-7.34,0-14.77-2.225-14.77-6.478a1.3,1.3,0,1,1,2.591,0c0,1.585,4.744,3.887,12.179,3.887a1.3,1.3,0,0,1,0,2.591Zm13.475-5.183a1.3,1.3,0,0,1-1.3-1.3c0-1.585-4.745-3.887-12.179-3.887a1.3,1.3,0,0,1,0-2.591c7.34,0,14.77,2.225,14.77,6.478A1.3,1.3,0,0,1,182.415,58.956Z" transform="translate(-113.156 -46)" fill="#28c7fa"/><path d="M413.331,146.464l-1.79-2.174a9.281,9.281,0,0,0-7.19-3.391,9.163,9.163,0,0,0-5.85,2.122L397,144.3V168.41L412.5,155.6a6.483,6.483,0,0,0,.827-9.134Z" transform="translate(-306.117 -116.308)" fill="#28c7fa"/><path d="M201.4,112.618l-.167.156q-.1.088-.194.175l-.178.155c-.067.057-.135.114-.2.171s-.125.1-.189.154l-.215.169c-.065.051-.131.1-.2.151s-.15.111-.226.167-.137.1-.207.149l-.236.163-.218.148c-.081.054-.163.107-.245.16s-.151.1-.228.146-.17.105-.256.158l-.237.144c-.088.052-.178.1-.267.155s-.162.094-.245.14-.186.1-.279.153-.167.092-.253.137-.195.1-.293.152-.172.089-.26.133-.205.1-.308.151l-.262.128c-.108.052-.219.1-.329.153-.087.04-.173.081-.261.121-.117.053-.237.1-.356.157-.084.037-.167.074-.253.111-.137.059-.278.117-.418.174l-.21.087q-.319.129-.648.256c-6.507,2.5-15.131,3.882-24.284,3.882S151.5,119.7,144.989,117.2q-.328-.126-.648-.256l-.219-.091c-.137-.056-.275-.113-.409-.171l-.258-.113c-.118-.052-.236-.1-.352-.155-.089-.04-.176-.081-.264-.122-.109-.051-.219-.1-.326-.152-.09-.043-.177-.086-.266-.13s-.2-.1-.3-.15-.175-.09-.262-.135-.195-.1-.29-.151-.169-.092-.254-.138-.187-.1-.279-.153l-.245-.14c-.09-.052-.18-.1-.267-.155s-.158-.1-.237-.143-.173-.1-.257-.158l-.228-.146-.245-.16c-.074-.049-.146-.1-.218-.148s-.158-.109-.235-.163l-.208-.15c-.076-.055-.151-.11-.225-.166l-.2-.152c-.072-.056-.144-.112-.214-.168s-.127-.1-.189-.155-.136-.113-.2-.171l-.179-.156q-.1-.087-.193-.174l-.168-.157c-.062-.059-.064-.118-.124-.177a.1.1,0,0,1-.025-.081v36.862l15.194,18.526a1.292,1.292,0,0,1-.147,1.824L137,181.982V204h64.781V112.359c-.259.027-.113.053-.14.08C201.581,112.5,201.461,112.558,201.4,112.618Zm-54.033,38.258a1.3,1.3,0,1,1-2.591,0v-28.5a1.3,1.3,0,1,1,2.591,0Zm0,41.46a1.3,1.3,0,0,1-2.591,0v-7.774a1.3,1.3,0,1,1,2.591,0Zm9.868-1.677a1.294,1.294,0,1,1,0-1.832,1.292,1.292,0,0,1,0,1.832Zm0-7.774a1.3,1.3,0,1,1,.378-.915A1.3,1.3,0,0,1,157.235,182.885Zm3.086-24.236a1.3,1.3,0,0,1-2.591,0V140.511a1.3,1.3,0,1,1,2.591,0Zm-.495-25a1.309,1.309,0,0,1-.917.378,1.3,1.3,0,1,1,.917-2.213,1.3,1.3,0,0,1,0,1.835Zm8.269,61.273a1.3,1.3,0,1,1-2.591,0V171.606a1.3,1.3,0,1,1,2.591,0Zm0-31.1a1.3,1.3,0,1,1-2.591,0v-7.774a1.3,1.3,0,0,1,2.591,0Zm2.1-17.221a1.3,1.3,0,0,1-2.213-.917,1.3,1.3,0,0,1,2.591,0A1.314,1.314,0,0,1,170.192,146.61Zm.495-8.691a1.3,1.3,0,0,1-2.591,0v-7.774a1.3,1.3,0,1,1,2.591,0Zm7.276,52.74a1.294,1.294,0,0,1-2.21-.915,1.3,1.3,0,0,1,2.591,0A1.291,1.291,0,0,1,177.963,190.659Zm.5-8.688a1.3,1.3,0,1,1-2.591,0V174.2a1.3,1.3,0,0,1,2.591,0Zm2.591-25.913a1.3,1.3,0,1,1-2.591,0v-28.5a1.3,1.3,0,0,1,2.591,0Zm4.685,26.827a1.294,1.294,0,1,1,0-1.832,1.292,1.292,0,0,1,0,1.832Zm.5-8.688a1.3,1.3,0,0,1-2.591,0v-7.774a1.3,1.3,0,0,1,2.591,0Zm7.774,10.365a1.3,1.3,0,1,1-2.591,0V132.737a1.3,1.3,0,0,1,2.591,0Z" transform="translate(-113.489 -95.164)" fill="#28c7fa"/></g></g></svg>