<svg xmlns="http://www.w3.org/2000/svg" width="93.227" height="93.227" viewBox="0 0 93.227 93.227"><path d="M18.645,0H0V93.227H93.227V0ZM74.582,60.668,60.668,74.582H47.484l27.1-27.1Zm0,4.394v9.52h-9.52Zm-31.494,9.52H29.9L74.582,29.9V43.088ZM74.582,25.51,25.51,74.582H18.645V68.263L68.261,18.645h6.321ZM18.645,63.867V50.683L50.683,18.645H63.867Zm0-17.578V33.1L33.1,18.645H46.289Zm0-17.58V18.645H28.709ZM3.108,3.108h12.43V74.582H3.108ZM74.582,90.12H3.108V77.689H74.582Zm15.538,0H77.689V18.645H90.12ZM77.689,15.538H18.645V3.108H90.12v12.43Z" fill="#28c7fa"/><ellipse cx="1.5" cy="2" rx="1.5" ry="2" transform="translate(84 4.227)" fill="#28c7fa"/><ellipse cx="1.5" cy="2" rx="1.5" ry="2" transform="translate(78 4.227)" fill="#28c7fa"/><circle cx="1.5" cy="1.5" r="1.5" transform="translate(84 11.227)" fill="#28c7fa"/><circle cx="1.5" cy="1.5" r="1.5" transform="translate(78 11.227)" fill="#28c7fa"/><ellipse cx="2" cy="1.5" rx="2" ry="1.5" transform="translate(85 84.227)" fill="#28c7fa"/><circle cx="2" cy="2" r="2" transform="translate(85 77.227)" fill="#28c7fa"/><circle cx="1.5" cy="1.5" r="1.5" transform="translate(79 84.227)" fill="#28c7fa"/><ellipse cx="1.5" cy="2" rx="1.5" ry="2" transform="translate(79 77.227)" fill="#28c7fa"/><circle cx="1.5" cy="1.5" r="1.5" transform="translate(6 85.227)" fill="#28c7fa"/><ellipse cx="2" cy="1.5" rx="2" ry="1.5" transform="translate(12 85.227)" fill="#28c7fa"/><circle cx="1.5" cy="1.5" r="1.5" transform="translate(6 79.227)" fill="#28c7fa"/><ellipse cx="2" cy="1.5" rx="2" ry="1.5" transform="translate(12 79.227)" fill="#28c7fa"/><circle cx="1.5" cy="1.5" r="1.5" transform="translate(5 6.227)" fill="#28c7fa"/><circle cx="1.5" cy="1.5" r="1.5" transform="translate(5 12.227)" fill="#28c7fa"/><circle cx="1.5" cy="1.5" r="1.5" transform="translate(11 6.227)" fill="#28c7fa"/><circle cx="1.5" cy="1.5" r="1.5" transform="translate(11 12.227)" fill="#28c7fa"/></svg>