<svg xmlns="http://www.w3.org/2000/svg" width="93.169" height="48.115" viewBox="0 0 93.169 48.115"><g transform="translate(0 -15.5)"><g transform="translate(0 15.5)"><path d="M86.316,37.954h-1.6a18.4,18.4,0,0,0,2.333-9.623c0-7.29-3.062-12.831-7-12.831H15.6c-4.083,0-7,5.541-7,12.831a18.4,18.4,0,0,0,2.333,9.623H7c-4.083,0-7,5.541-7,12.831S3.062,63.615,7,63.615H86.17c4.083,0,7-5.541,7-12.831S90.253,37.954,86.316,37.954ZM79.9,18.708c1.6,0,3.791,3.791,3.791,9.623S81.5,37.954,79.9,37.954H20.267a.509.509,0,0,0,.146-.292c.146-.146.146-.292.292-.437s.146-.292.292-.437.146-.292.292-.583c0-.146.146-.292.146-.437s.146-.437.146-.583.146-.292.146-.583c0-.146.146-.437.146-.583s.146-.292.146-.583.146-.437.146-.729c0-.146.146-.292.146-.583s.146-.437.146-.729v-.583a1.849,1.849,0,0,1,.146-.875V26.144a1.849,1.849,0,0,0-.146-.875v-.583a1.314,1.314,0,0,0-.146-.729,1.1,1.1,0,0,0-.146-.583c0-.292-.146-.437-.146-.729,0-.146-.146-.292-.146-.583,0-.146-.146-.437-.146-.583s-.146-.292-.146-.583c0-.146-.146-.437-.146-.583s-.146-.292-.146-.437c-.146-.146-.146-.292-.292-.583,0-.146-.146-.292-.292-.437s-.146-.292-.292-.437c0-.146-.146-.146-.146-.292H79.9ZM27.12,50.785c0,5.832-2.333,9.623-3.791,9.623s-3.791-3.791-3.791-9.623,2.187-9.623,3.791-9.623h0C24.933,41.162,27.12,44.952,27.12,50.785ZM11.664,28.331c0-5.832,2.333-9.623,3.791-9.623s3.791,3.791,3.791,9.623-2.187,9.623-3.791,9.623h0C14,37.954,11.664,34.163,11.664,28.331ZM3.208,50.785c0-5.832,2.333-9.623,3.791-9.623s3.791,3.791,3.791,9.623S8.457,60.408,7,60.408,3.208,56.763,3.208,50.785Zm8.748,9.477c.146-.146.146-.292.292-.437s.146-.292.292-.437.146-.292.292-.583c0-.146.146-.292.146-.437s.146-.437.146-.583.146-.292.146-.583c0-.146.146-.437.146-.583s.146-.292.146-.583.146-.437.146-.729c0-.146.146-.292.146-.583s.146-.437.146-.729v-.583a1.849,1.849,0,0,1,.146-.875V48.743A1.849,1.849,0,0,0,14,47.869v-.583a1.314,1.314,0,0,0-.146-.729,1.1,1.1,0,0,0-.146-.583c0-.292-.146-.437-.146-.729,0-.146-.146-.292-.146-.583,0-.146-.146-.437-.146-.583-.146.146-.146,0-.292-.146,0-.146-.146-.437-.146-.583s-.146-.292-.146-.437c-.146-.146-.146-.292-.292-.583,0-.146-.146-.292-.292-.437s-.146-.292-.292-.437c0-.146-.146-.146-.146-.292h6.853a18.4,18.4,0,0,0-2.333,9.623,18.4,18.4,0,0,0,2.333,9.623H11.81Zm74.36.146H28.14a.509.509,0,0,0,.146-.292c.146-.146.146-.292.292-.437,0-.146.146-.292.146-.437.146-.146.146-.292.292-.583,0-.146.146-.292.146-.437a.877.877,0,0,0,.146-.583c0-.146.146-.292.146-.437a6.314,6.314,0,0,0,.146-.729c0-.146.146-.292.146-.437,0-.292.146-.437.146-.729a1.1,1.1,0,0,1,.146-.583,6.315,6.315,0,0,1,.146-.729v-.437a1.849,1.849,0,0,1,.146-.875V48.889a1.849,1.849,0,0,0-.146-.875v-.437a1.093,1.093,0,0,0-.146-.729,1.1,1.1,0,0,0-.146-.583c0-.292-.146-.437-.146-.729,0-.146-.146-.292-.146-.437,0-.292-.146-.437-.146-.729,0-.146-.146-.292-.146-.437s-.146-.437-.146-.583-.146-.292-.146-.437c-.146-.146-.146-.437-.292-.583,0-.146-.146-.292-.146-.437-.146-.146-.146-.292-.292-.437l-.146-.146H86.17c1.6,0,3.791,3.791,3.791,9.623S87.774,60.408,86.316,60.408Z" transform="translate(0 -15.5)" fill="#28c7fa"/><path d="M18.758,22.662h9.186l5.249,1.75c.146,0,.292.146.437.146a1.314,1.314,0,0,0,.729-.146l3.5-1.6h8.165a1.6,1.6,0,0,0,0-3.208H37.567a1.314,1.314,0,0,0-.729.146l-3.208,1.6-4.812-1.6c-.146,0-.292-.146-.437-.146H18.9a1.618,1.618,0,0,0-1.6,1.6A1.378,1.378,0,0,0,18.758,22.662Z" transform="translate(7.924 -13.622)" fill="#28c7fa"/><path d="M43.5,22.708H56.189a1.6,1.6,0,0,0,0-3.208H43.5a1.6,1.6,0,0,0,0,3.208Z" transform="translate(19.192 -13.668)" fill="#28c7fa"/><path d="M18.8,29.608H38.779a1.6,1.6,0,0,0,0-3.208H18.8a1.6,1.6,0,1,0,0,3.208Z" transform="translate(7.878 -10.507)" fill="#28c7fa"/><path d="M35.9,28.575a1.618,1.618,0,0,0,1.6,1.6H43.19l6.853-2.041,3.062,1.9a2.072,2.072,0,0,0,.875.292h7a1.6,1.6,0,0,0,0-3.208H54.417l-3.353-2.041a1.417,1.417,0,0,0-1.312-.146l-7.29,2.187H37.5A1.417,1.417,0,0,0,35.9,28.575Z" transform="translate(16.444 -11.224)" fill="#28c7fa"/><path d="M24.3,38.362H33.49l5.249,1.75c.146,0,.292.146.437.146a1.314,1.314,0,0,0,.729-.146l3.5-1.6h8.019a1.6,1.6,0,1,0,0-3.208H42.967a1.314,1.314,0,0,0-.729.146l-3.208,1.6-4.812-1.6c-.146,0-.292-.146-.437-.146H24.3a1.618,1.618,0,0,0-1.6,1.6A1.5,1.5,0,0,0,24.3,38.362Z" transform="translate(10.398 -6.431)" fill="#28c7fa"/><path d="M49,38.408H61.689a1.6,1.6,0,0,0,0-3.208H49a1.6,1.6,0,1,0,0,3.208Z" transform="translate(21.711 -6.477)" fill="#28c7fa"/><path d="M44.133,42.1H24.3a1.6,1.6,0,1,0,0,3.208H44.279a1.618,1.618,0,0,0,1.6-1.6A1.751,1.751,0,0,0,44.133,42.1Z" transform="translate(10.398 -3.316)" fill="#28c7fa"/><path d="M66.378,42.817H59.817l-3.354-2.041a1.417,1.417,0,0,0-1.312-.146l-7.29,2.187H42.9a1.6,1.6,0,0,0,0,3.208H48.59l6.853-2.041,3.062,1.9a2.072,2.072,0,0,0,.875.292h7a1.618,1.618,0,0,0,1.6-1.6A1.649,1.649,0,0,0,66.378,42.817Z" transform="translate(18.917 -4.033)" fill="#28c7fa"/></g></g></svg>